<svg width="1596" height="825" xmlns="http://www.w3.org/2000/svg" xmlns:xlink="http://www.w3.org/1999/xlink" xml:space="preserve" overflow="hidden"><defs><clipPath id="clip0"><rect x="2199" y="468" width="1596" height="825"/></clipPath><clipPath id="clip1"><rect x="2199" y="468" width="1595" height="825"/></clipPath><clipPath id="clip2"><rect x="2199" y="468" width="1595" height="825"/></clipPath><clipPath id="clip3"><rect x="2199" y="468" width="1595" height="825"/></clipPath></defs><g clip-path="url(#clip0)" transform="translate(-2199 -468)"><rect x="2199" y="469" width="1596" height="824" fill="#FFFFFF"/><g clip-path="url(#clip1)"><path d="M2329.5 1079.54 3794.5 1079.54M2329.5 965.532 3794.5 965.532M2329.5 851.528 3794.5 851.528M2329.5 737.524 3794.5 737.524M2329.5 623.521 3794.5 623.521M2329.5 508.5 3794.5 508.5" stroke="#D9D9D9" stroke-width="3.4375" stroke-linejoin="round" stroke-miterlimit="10" fill="none"/></g><g><path d="M2412.08 1057.03 2735.09 1057.03 2735.09 1194 2412.08 1194ZM2900.1 890.029 3224.11 890.029 3224.11 1194 2900.1 1194ZM3389.11 1011.03 3712.12 1011.03 3712.12 1194 3389.11 1194Z" fill="#A6A6A6"/></g><g><path d="M2573.58 1057.53 2573.58 1100.5M2573.58 1057.53 2573.58 1013.5M2563.5 1100.5 2584.5 1100.5M2563.5 1013.5 2584.5 1013.5" stroke="#000000" stroke-width="12.6042" stroke-linejoin="round" stroke-miterlimit="10" fill="none"/></g><g><path d="M3062.6 889.529 3062.6 925.5M3062.6 889.529 3062.6 853.5M3051.5 925.5 3072.5 925.5M3051.5 853.5 3072.5 853.5" stroke="#000000" stroke-width="12.6042" stroke-linejoin="round" stroke-miterlimit="10" fill="none"/></g><g><path d="M3550.62 1011.53 3550.62 1062.5M3550.62 1011.53 3550.62 960.5M3540.5 1062.5 3560.5 1062.5M3540.5 960.5 3560.5 960.5" stroke="#000000" stroke-width="12.6042" stroke-linejoin="round" stroke-miterlimit="10" fill="none"/></g><g><path d="M0 0 0.000360892 685" stroke="#000000" stroke-width="10.3125" stroke-linejoin="round" stroke-miterlimit="10" fill="none" fill-rule="evenodd" transform="matrix(1 0 0 -1 2329 1194)"/></g><g><path d="M2329 1194 2348 1194M2329 1080.04 2348 1080.04M2329 966.032 2348 966.032M2329 851.028 2348 851.028M2329 737.024 2348 737.024M2329 623.02 2348 623.02M2329 509 2348 509" stroke="#000000" stroke-width="10.3125" stroke-linejoin="round" stroke-miterlimit="10" fill="none"/></g><g clip-path="url(#clip2)"><path d="M2329 1194 3795 1194" stroke="#000000" stroke-width="10.3125" stroke-linejoin="round" stroke-miterlimit="10" fill="none" fill-rule="evenodd"/></g><g clip-path="url(#clip3)"><path d="M2329 1168 2329 1194M2818.09 1168 2818.09 1194M3306.11 1168 3306.11 1194M3795 1168 3795 1194" stroke="#000000" stroke-width="10.3125" stroke-linejoin="round" stroke-miterlimit="10" fill="none"/></g><g><text font-family="Segoe UI,Segoe UI_MSFontService,sans-serif" font-weight="700" font-size="50" transform="matrix(1 0 0 1 2248.84 1210)">1</text></g><g><text font-family="Segoe UI,Segoe UI_MSFontService,sans-serif" font-weight="700" font-size="50" transform="matrix(1 0 0 1 2206.19 1096)">1.5</text></g><g><text font-family="Segoe UI,Segoe UI_MSFontService,sans-serif" font-weight="700" font-size="50" transform="matrix(1 0 0 1 2248.84 982)">2</text></g><g><text font-family="Segoe UI,Segoe UI_MSFontService,sans-serif" font-weight="700" font-size="50" transform="matrix(1 0 0 1 2206.19 868)">2.5</text></g><g><text font-family="Segoe UI,Segoe UI_MSFontService,sans-serif" font-weight="700" font-size="50" transform="matrix(1 0 0 1 2248.84 754)">3</text></g><g><text font-family="Segoe UI,Segoe UI_MSFontService,sans-serif" font-weight="700" font-size="50" transform="matrix(1 0 0 1 2206.19 639)">3.5</text></g><g><text font-family="Segoe UI,Segoe UI_MSFontService,sans-serif" font-weight="700" font-size="50" transform="matrix(1 0 0 1 2248.84 525)">4</text></g></g></svg>