<svg width="2723" height="1465" xmlns="http://www.w3.org/2000/svg" xmlns:xlink="http://www.w3.org/1999/xlink" xml:space="preserve" overflow="hidden"><defs><clipPath id="clip0"><rect x="656" y="740" width="2536" height="1117"/></clipPath><clipPath id="clip1"><rect x="656" y="740" width="2536" height="1117"/></clipPath><clipPath id="clip2"><rect x="656" y="740" width="2536" height="1117"/></clipPath><clipPath id="clip3"><rect x="656" y="740" width="2536" height="1117"/></clipPath></defs><g transform="translate(-468 -740)"><g clip-path="url(#clip0)"><g clip-path="url(#clip1)"><g clip-path="url(#clip2)"><g clip-path="url(#clip3)"><path d="M3799.82 99.5776 5590.77 99.5776 5590.77 1215.13 3799.82 1215.13Z" fill="#FFFFFF" transform="matrix(1.41489 0 0 1 -4719.33 641.866)"/><path d="M4170.84 710.054 4338.26 710.054 4338.26 1080.92 4170.84 1080.92ZM4706.28 539.756 4873.68 539.756 4873.68 1080.92 4706.28 1080.92ZM5240.26 663.872 5407.66 663.872 5407.66 1080.92 5240.26 1080.92Z" fill="#8FAADC" transform="matrix(1.41489 0 0 1 -4719.33 641.866)"/><path d="M4255.28 710.776 4255.28 755.49M4255.28 710.776 4255.28 664.572M4240.7 755.49 4269.57 755.49M4240.7 664.572 4269.57 664.572" stroke="#000000" stroke-width="18.1898" stroke-linejoin="round" stroke-miterlimit="10" fill="none" transform="matrix(1.41489 0 0 1 -4719.33 641.866)"/><path d="M4789.26 540.478 4789.26 577.982M4789.26 540.478 4789.26 501.495M4774.67 577.982 4803.53 577.982M4774.67 501.495 4803.53 501.495" stroke="#000000" stroke-width="18.1898" stroke-linejoin="round" stroke-miterlimit="10" fill="none" transform="matrix(1.41489 0 0 1 -4719.33 641.866)"/><path d="M5323.24 663.15 5323.24 716.525M5323.24 663.15 5323.24 609.732M5308.64 716.525 5338.94 716.525M5308.64 609.732 5338.94 609.732" stroke="#000000" stroke-width="18.1898" stroke-linejoin="round" stroke-miterlimit="10" fill="none" transform="matrix(1.41489 0 0 1 -4719.33 641.866)"/><path d="M0 0 0.000520822 927.947" stroke="#000000" stroke-width="14.8825" stroke-linejoin="round" stroke-miterlimit="10" fill="none" fill-rule="evenodd" transform="matrix(1.41489 0 0 -1 922.447 1722.79)"/><path d="M3987.43 1080.92 4013.41 1080.92M3987.43 965.501 4013.41 965.501M3987.43 848.601 4013.41 848.601M3987.43 733.146 4013.41 733.146M3987.43 617.689 4013.41 617.689M3987.43 500.79 4013.41 500.79M3987.43 385.335 4013.41 385.335M3987.43 269.878 4013.41 269.878M3987.43 152.974 4013.41 152.974" stroke="#000000" stroke-width="14.8825" stroke-linejoin="round" stroke-miterlimit="10" fill="none" transform="matrix(1.41489 0 0 1 -4719.33 641.866)"/><path d="M3987.43 1080.92 5590.77 1080.92" stroke="#000000" stroke-width="14.8825" stroke-linejoin="round" stroke-miterlimit="10" fill="none" fill-rule="evenodd" transform="matrix(1.41489 0 0 1 -4719.33 641.866)"/><path d="M3987.43 1043.4 3987.43 1118.44M4521.54 1043.4 4521.54 1118.44M5056.96 1043.4 5056.96 1118.44M5590.77 1043.4 5590.77 1118.44" stroke="#000000" stroke-width="14.8825" stroke-linejoin="round" stroke-miterlimit="10" fill="none" transform="matrix(1.41489 0 0 1 -4719.33 641.866)"/><text font-family="Segoe UI,Segoe UI_MSFontService,sans-serif" font-weight="700" font-size="50" transform="matrix(2.0419 0 0 1.44315 758.38 1747)">0</text><text font-family="Segoe UI,Segoe UI_MSFontService,sans-serif" font-weight="700" font-size="50" transform="matrix(2.0419 0 0 1.44315 671.293 1630)">0</text><text font-family="Segoe UI,Segoe UI_MSFontService,sans-serif" font-weight="700" font-size="50" transform="matrix(2.0419 0 0 1.44315 730.508 1630)">.</text><text font-family="Segoe UI,Segoe UI_MSFontService,sans-serif" font-weight="700" font-size="50" transform="matrix(2.0419 0 0 1.44315 759.095 1630)">5</text><text font-family="Segoe UI,Segoe UI_MSFontService,sans-serif" font-weight="700" font-size="50" transform="matrix(2.0419 0 0 1.44315 758.38 1515)">1</text><text font-family="Segoe UI,Segoe UI_MSFontService,sans-serif" font-weight="700" font-size="50" transform="matrix(2.0419 0 0 1.44315 671.293 1398)">1</text><text font-family="Segoe UI,Segoe UI_MSFontService,sans-serif" font-weight="700" font-size="50" transform="matrix(2.0419 0 0 1.44315 730.508 1398)">.</text><text font-family="Segoe UI,Segoe UI_MSFontService,sans-serif" font-weight="700" font-size="50" transform="matrix(2.0419 0 0 1.44315 759.095 1398)">5</text><text font-family="Segoe UI,Segoe UI_MSFontService,sans-serif" font-weight="700" font-size="50" transform="matrix(2.0419 0 0 1.44315 758.38 1283)">2</text><text font-family="Segoe UI,Segoe UI_MSFontService,sans-serif" font-weight="700" font-size="50" transform="matrix(2.0419 0 0 1.44315 671.293 1167)">2</text><text font-family="Segoe UI,Segoe UI_MSFontService,sans-serif" font-weight="700" font-size="50" transform="matrix(2.0419 0 0 1.44315 730.508 1167)">.</text><text font-family="Segoe UI,Segoe UI_MSFontService,sans-serif" font-weight="700" font-size="50" transform="matrix(2.0419 0 0 1.44315 759.095 1167)">5</text><text font-family="Segoe UI,Segoe UI_MSFontService,sans-serif" font-weight="700" font-size="50" transform="matrix(2.0419 0 0 1.44315 758.38 1050)">3</text><text font-family="Segoe UI,Segoe UI_MSFontService,sans-serif" font-weight="700" font-size="50" transform="matrix(2.0419 0 0 1.44315 671.293 935)">3</text><text font-family="Segoe UI,Segoe UI_MSFontService,sans-serif" font-weight="700" font-size="50" transform="matrix(2.0419 0 0 1.44315 730.508 935)">.</text><text font-family="Segoe UI,Segoe UI_MSFontService,sans-serif" font-weight="700" font-size="50" transform="matrix(2.0419 0 0 1.44315 759.095 935)">5</text><text font-family="Segoe UI,Segoe UI_MSFontService,sans-serif" font-weight="700" font-size="50" transform="matrix(2.0419 0 0 1.44315 758.38 819)">4</text></g></g></g></g><path d="M1303 1120.58 1303 1038.08 2055.47 1038.08 2055.47 1116" stroke="#000000" stroke-width="10.3125" stroke-miterlimit="8" fill="none" fill-rule="evenodd"/><text font-family="Arial,Arial_MSFontService,sans-serif" font-weight="700" font-size="128" transform="matrix(1 0 0 1 1643.74 1071)">*</text><text font-family="Arial,Arial_MSFontService,sans-serif" font-weight="700" font-size="128" transform="matrix(1 0 0 1 2485 913)">* : p&lt;0.05</text><text font-family="Arial,Arial_MSFontService,sans-serif" font-weight="700" font-size="110" transform="matrix(1 0 0 1 1001.06 1982)">A.</text><text font-family="MS Gothic,MS Gothic_MSFontService,sans-serif" font-weight="700" font-size="110" transform="matrix(1 0 0 1 1124.81 1982)">単独映像</text><text font-family="Arial,Arial_MSFontService,sans-serif" font-weight="700" font-size="110" transform="matrix(1 0 0 1 1026.27 2114)">(</text><text font-family="MS Gothic,MS Gothic_MSFontService,sans-serif" font-weight="700" font-size="110" transform="matrix(1 0 0 1 1062.93 2114)">手動切替</text><text font-family="Arial,Arial_MSFontService,sans-serif" font-weight="700" font-size="110" transform="matrix(1 0 0 1 1505.23 2114)">)</text><text font-family="Arial,Arial_MSFontService,sans-serif" font-weight="700" font-size="110" transform="matrix(1 0 0 1 1817.16 1982)">B. 2</text><text font-family="MS Gothic,MS Gothic_MSFontService,sans-serif" font-weight="700" font-size="110" transform="matrix(1 0 0 1 2018.83 1982)">重映像</text><text font-family="Arial,Arial_MSFontService,sans-serif" font-weight="700" font-size="110" transform="matrix(1 0 0 1 1826.06 2114)">(</text><text font-family="MS Gothic,MS Gothic_MSFontService,sans-serif" font-weight="700" font-size="110" transform="matrix(1 0 0 1 1862.72 2114)">手動切替</text><text font-family="Arial,Arial_MSFontService,sans-serif" font-weight="700" font-size="110" transform="matrix(1 0 0 1 2305.01 2114)">)</text><text font-family="Arial,Arial_MSFontService,sans-serif" font-weight="700" font-size="110" transform="matrix(1 0 0 1 2512.29 1982)">C</text><text font-family="Arial,Arial_MSFontService,sans-serif" font-weight="700" font-size="110" transform="matrix(1 0 0 1 2591.92 1982)">. </text><text font-family="MS Gothic,MS Gothic_MSFontService,sans-serif" font-weight="700" font-size="110" transform="matrix(1 0 0 1 2652.65 1982)">単独映像</text><text font-family="Arial,Arial_MSFontService,sans-serif" font-weight="700" font-size="110" transform="matrix(1 0 0 1 2545.81 2114)">(</text><text font-family="MS Gothic,MS Gothic_MSFontService,sans-serif" font-weight="700" font-size="110" transform="matrix(1 0 0 1 2582.48 2114)">自動切替</text><text font-family="Arial,Arial_MSFontService,sans-serif" font-weight="700" font-size="110" transform="matrix(1 0 0 1 3024.77 2114)">)</text><text font-family="MS Gothic,MS Gothic_MSFontService,sans-serif" font-weight="700" font-size="110" transform="matrix(-1.83697e-16 -1 1 -1.83697e-16 614.422 1745)">同時存在感</text><text font-family="MS Gothic,MS Gothic_MSFontService,sans-serif" font-weight="700" font-size="110" transform="matrix(-1.83697e-16 -1 1 -1.83697e-16 614.422 1192)">覚</text><text font-family="MS Gothic,MS Gothic_MSFontService,sans-serif" font-weight="700" font-size="110" transform="matrix(-1.83697e-16 -1 1 -1.83697e-16 614.422 1081)">強度</text></g></svg>