<svg width="3046" height="1626" xmlns="http://www.w3.org/2000/svg" xmlns:xlink="http://www.w3.org/1999/xlink" xml:space="preserve" overflow="hidden"><defs><clipPath id="clip0"><rect x="671" y="403" width="3046" height="1626"/></clipPath><clipPath id="clip1"><rect x="799" y="402" width="2918" height="1413"/></clipPath><clipPath id="clip2"><rect x="799" y="402" width="2918" height="1414"/></clipPath><clipPath id="clip3"><rect x="799" y="402" width="2918" height="1414"/></clipPath><clipPath id="clip4"><rect x="799" y="402" width="2918" height="1413"/></clipPath><clipPath id="clip5"><rect x="799" y="402" width="2918" height="1413"/></clipPath><clipPath id="clip6"><rect x="799" y="402" width="2918" height="1413"/></clipPath></defs><g clip-path="url(#clip0)" transform="translate(-671 -403)"><g clip-path="url(#clip1)"><g clip-path="url(#clip2)"><g clip-path="url(#clip3)"><g clip-path="url(#clip4)"><path d="M830.025 1602.46 3747.02 1602.46 3747.02 3014.3 830.025 3014.3Z" fill="#FFFFFF" transform="matrix(1 0 0 1.00012 -30.0246 -1199.65)"/><path d="M1495.29 2335.27 1828.89 2335.27 1828.89 2883.24 1495.29 2883.24ZM2329.31 2553.7 2662.91 2553.7 2662.91 2883.24 2329.31 2883.24ZM3163.33 2335.27 3496.95 2335.27 3496.95 2883.24 3163.33 2883.24Z" fill="#8FAADC" transform="matrix(1 0 0 1.00012 -30.0246 -1199.65)"/><path d="M1495.29 2061.16 1828.89 2061.16 1828.89 2335.27 1495.29 2335.27ZM2329.31 2061.16 2662.91 2061.16 2662.91 2553.7 2329.31 2553.7ZM3163.33 2061.16 3496.95 2061.16 3496.95 2335.27 3163.33 2335.27Z" fill="#F4B183" transform="matrix(1 0 0 1.00012 -30.0246 -1199.65)"/><path d="M0 0 0.000716625 822.082" stroke="#000000" stroke-width="18.2023" stroke-linejoin="round" stroke-miterlimit="10" fill="none" fill-rule="evenodd" transform="matrix(1 0 0 -1.00012 1216.01 1682.94)"/><path d="M1246.03 2882.25 1283.76 2882.25M1246.03 2717.54 1283.76 2717.54M1246.03 2554.69 1283.76 2554.69M1246.03 2389.88 1283.76 2389.88M1246.03 2225.06 1283.76 2225.06M1246.03 2060.17 1283.76 2060.17" stroke="#000000" stroke-width="18.2023" stroke-linejoin="round" stroke-miterlimit="10" fill="none" transform="matrix(1 0 0 1.00012 -30.0246 -1199.65)"/><g clip-path="url(#clip5)"><path d="M1246.03 2882.25 3748.02 2882.25" stroke="#000000" stroke-width="18.2023" stroke-linejoin="round" stroke-miterlimit="10" fill="none" fill-rule="evenodd" transform="matrix(1 0 0 1.00012 -30.0246 -1199.65)"/></g><g clip-path="url(#clip6)"><path d="M1246.03 2824.66 1246.03 2882.25M2080.09 2824.66 2080.09 2882.25M2914.12 2824.66 2914.12 2882.25M3748.02 2824.66 3748.02 2882.25" stroke="#000000" stroke-width="18.2023" stroke-linejoin="round" stroke-miterlimit="10" fill="none" transform="matrix(1 0 0 1.00012 -30.0246 -1199.65)"/></g><text font-family="Segoe UI,Segoe UI_MSFontService,sans-serif" font-weight="400" font-size="73" transform="matrix(1.9857 0 0 1.98594 1459.47 1469)">66</text><text font-family="Segoe UI,Segoe UI_MSFontService,sans-serif" font-weight="400" font-size="73" transform="matrix(1.9857 0 0 1.98594 1614.36 1469)">.</text><text font-family="Segoe UI,Segoe UI_MSFontService,sans-serif" font-weight="400" font-size="73" transform="matrix(1.9857 0 0 1.98594 1646.13 1469)">67</text><text font-family="Segoe UI,Segoe UI_MSFontService,sans-serif" font-weight="400" font-size="73" transform="matrix(1.9857 0 0 1.98594 2387.81 1579)">40</text><text font-family="Segoe UI,Segoe UI_MSFontService,sans-serif" font-weight="400" font-size="73" transform="matrix(1.9857 0 0 1.98594 3127.56 1469)">66</text><text font-family="Segoe UI,Segoe UI_MSFontService,sans-serif" font-weight="400" font-size="73" transform="matrix(1.9857 0 0 1.98594 3282.45 1469)">.</text><text font-family="Segoe UI,Segoe UI_MSFontService,sans-serif" font-weight="400" font-size="73" transform="matrix(1.9857 0 0 1.98594 3314.22 1469)">67</text><text font-family="Segoe UI,Segoe UI_MSFontService,sans-serif" font-weight="400" font-size="83" transform="matrix(1.9857 0 0 1.98594 1543.93 1066)">33 </text><text font-family="Segoe UI,Segoe UI_MSFontService,sans-serif" font-weight="400" font-size="83" transform="matrix(1.9857 0 0 1.98594 2377.98 1176)">60</text><text font-family="Segoe UI,Segoe UI_MSFontService,sans-serif" font-weight="400" font-size="83" transform="matrix(1.9857 0 0 1.98594 3212.02 1066)">33 </text><text font-family="Segoe UI,Segoe UI_MSFontService,sans-serif" font-weight="400" font-size="55" transform="matrix(1.9857 0 0 1.98594 955.062 1720)">0</text><text font-family="Segoe UI,Segoe UI_MSFontService,sans-serif" font-weight="400" font-size="55" transform="matrix(1.9857 0 0 1.98594 1014.63 1720)">%</text><text font-family="Segoe UI,Segoe UI_MSFontService,sans-serif" font-weight="400" font-size="55" transform="matrix(1.9857 0 0 1.98594 896.177 1555)">20</text><text font-family="Segoe UI,Segoe UI_MSFontService,sans-serif" font-weight="400" font-size="55" transform="matrix(1.9857 0 0 1.98594 1015.32 1555)">%</text><text font-family="Segoe UI,Segoe UI_MSFontService,sans-serif" font-weight="400" font-size="55" transform="matrix(1.9857 0 0 1.98594 896.177 1390)">40</text><text font-family="Segoe UI,Segoe UI_MSFontService,sans-serif" font-weight="400" font-size="55" transform="matrix(1.9857 0 0 1.98594 1015.32 1390)">%</text><text font-family="Segoe UI,Segoe UI_MSFontService,sans-serif" font-weight="400" font-size="55" transform="matrix(1.9857 0 0 1.98594 896.177 1225)">60</text><text font-family="Segoe UI,Segoe UI_MSFontService,sans-serif" font-weight="400" font-size="55" transform="matrix(1.9857 0 0 1.98594 1015.32 1225)">%</text><text font-family="Segoe UI,Segoe UI_MSFontService,sans-serif" font-weight="400" font-size="55" transform="matrix(1.9857 0 0 1.98594 896.177 1060)">80</text><text font-family="Segoe UI,Segoe UI_MSFontService,sans-serif" font-weight="400" font-size="55" transform="matrix(1.9857 0 0 1.98594 1015.32 1060)">%</text><text font-family="Segoe UI,Segoe UI_MSFontService,sans-serif" font-weight="400" font-size="55" transform="matrix(1.9857 0 0 1.98594 837.291 897)">100</text><text font-family="Segoe UI,Segoe UI_MSFontService,sans-serif" font-weight="400" font-size="55" transform="matrix(1.9857 0 0 1.98594 1016 897)">%</text><path d="M1084.19 1695.79 1171.57 1695.79 1171.57 1783.16 1084.19 1783.16Z" fill="#F4B183" transform="matrix(1 0 0 1.00012 -30.0246 -1199.65)"/><text font-family="Meiryo,Meiryo_MSFontService,sans-serif" font-weight="700" font-size="73" transform="matrix(1.9857 0 0 1.98594 1182.03 572)">２</text><text font-family="Meiryo,Meiryo_MSFontService,sans-serif" font-weight="700" font-size="73" transform="matrix(1.9857 0 0 1.98594 1326.99 572)">つの</text><text font-family="Meiryo,Meiryo_MSFontService,sans-serif" font-weight="700" font-size="73" transform="matrix(1.9857 0 0 1.98594 1616.9 572)">空間</text><text font-family="Meiryo,Meiryo_MSFontService,sans-serif" font-weight="700" font-size="73" transform="matrix(1.9857 0 0 1.98594 1906.81 572)">が</text><text font-family="Meiryo,Meiryo_MSFontService,sans-serif" font-weight="700" font-size="73" transform="matrix(1.9857 0 0 1.98594 2051.77 572)">融合</text><text font-family="Meiryo,Meiryo_MSFontService,sans-serif" font-weight="700" font-size="73" transform="matrix(1.9857 0 0 1.98594 2341.68 572)">している</text><text font-family="Meiryo,Meiryo_MSFontService,sans-serif" font-weight="700" font-size="73" transform="matrix(1.9857 0 0 1.98594 2921.51 572)">感覚</text><path d="M1084.19 1874.51 1171.57 1874.51 1171.57 1961.88 1084.19 1961.88Z" fill="#8FAADC" transform="matrix(1 0 0 1.00012 -30.0246 -1199.65)"/><text font-family="Meiryo,Meiryo_MSFontService,sans-serif" font-weight="700" font-size="73" transform="matrix(1.9857 0 0 1.98594 1182.03 751)">２</text><text font-family="Meiryo,Meiryo_MSFontService,sans-serif" font-weight="700" font-size="73" transform="matrix(1.9857 0 0 1.98594 1326.99 751)">つの</text><text font-family="Meiryo,Meiryo_MSFontService,sans-serif" font-weight="700" font-size="73" transform="matrix(1.9857 0 0 1.98594 1616.9 751)">遠隔空間</text><text font-family="Meiryo,Meiryo_MSFontService,sans-serif" font-weight="700" font-size="73" transform="matrix(1.9857 0 0 1.98594 2196.72 751)">に</text><text font-family="Meiryo,Meiryo_MSFontService,sans-serif" font-weight="700" font-size="73" transform="matrix(1.9857 0 0 1.98594 2341.68 751)">分身</text><text font-family="Meiryo,Meiryo_MSFontService,sans-serif" font-weight="700" font-size="73" transform="matrix(1.9857 0 0 1.98594 2631.59 751)">している</text><text font-family="Meiryo,Meiryo_MSFontService,sans-serif" font-weight="700" font-size="73" transform="matrix(1.9857 0 0 1.98594 3211.42 751)">感覚</text></g></g></g></g><text font-family="Arial,Arial_MSFontService,sans-serif" font-weight="700" font-size="110" transform="matrix(1 0 0 1 1369.58 1805)">A.</text><text font-family="MS Gothic,MS Gothic_MSFontService,sans-serif" font-weight="700" font-size="110" transform="matrix(1 0 0 1 1493.33 1805)">単独映像</text><text font-family="Arial,Arial_MSFontService,sans-serif" font-weight="700" font-size="110" transform="matrix(1 0 0 1 1394.79 1937)">(</text><text font-family="MS Gothic,MS Gothic_MSFontService,sans-serif" font-weight="700" font-size="110" transform="matrix(1 0 0 1 1431.45 1937)">手動切替</text><text font-family="Arial,Arial_MSFontService,sans-serif" font-weight="700" font-size="110" transform="matrix(1 0 0 1 1873.75 1937)">)</text><text font-family="Arial,Arial_MSFontService,sans-serif" font-weight="700" font-size="110" transform="matrix(1 0 0 1 2211.33 1805)">B. 2</text><text font-family="MS Gothic,MS Gothic_MSFontService,sans-serif" font-weight="700" font-size="110" transform="matrix(1 0 0 1 2412.99 1805)">重映像</text><text font-family="Arial,Arial_MSFontService,sans-serif" font-weight="700" font-size="110" transform="matrix(1 0 0 1 2220.22 1937)">(</text><text font-family="MS Gothic,MS Gothic_MSFontService,sans-serif" font-weight="700" font-size="110" transform="matrix(1 0 0 1 2256.89 1937)">手動切替</text><text font-family="Arial,Arial_MSFontService,sans-serif" font-weight="700" font-size="110" transform="matrix(1 0 0 1 2699.18 1937)">)</text><text font-family="Arial,Arial_MSFontService,sans-serif" font-weight="700" font-size="110" transform="matrix(1 0 0 1 3012.11 1805)">C</text><text font-family="Arial,Arial_MSFontService,sans-serif" font-weight="700" font-size="110" transform="matrix(1 0 0 1 3091.75 1805)">. </text><text font-family="MS Gothic,MS Gothic_MSFontService,sans-serif" font-weight="700" font-size="110" transform="matrix(1 0 0 1 3152.48 1805)">単独映像</text><text font-family="Arial,Arial_MSFontService,sans-serif" font-weight="700" font-size="110" transform="matrix(1 0 0 1 3045.64 1937)">(</text><text font-family="MS Gothic,MS Gothic_MSFontService,sans-serif" font-weight="700" font-size="110" transform="matrix(1 0 0 1 3082.31 1937)">自動切替</text><text font-family="Arial,Arial_MSFontService,sans-serif" font-weight="700" font-size="110" transform="matrix(1 0 0 1 3524.6 1937)">)</text><text font-family="MS Gothic,MS Gothic_MSFontService,sans-serif" font-weight="700" font-size="110" transform="matrix(-1.83697e-16 -1 1 -1.83697e-16 817.48 1508)">内訳（</text><text font-family="Arial,Arial_MSFontService,sans-serif" font-weight="700" font-size="110" transform="matrix(-1.83697e-16 -1 1 -1.83697e-16 817.48 1176)">%</text><text font-family="MS Gothic,MS Gothic_MSFontService,sans-serif" font-weight="700" font-size="110" transform="matrix(-1.83697e-16 -1 1 -1.83697e-16 817.48 1078)">）</text></g></svg>