<svg width="1838" height="1231" xmlns="http://www.w3.org/2000/svg" xmlns:xlink="http://www.w3.org/1999/xlink" xml:space="preserve" overflow="hidden"><defs><clipPath id="clip0"><rect x="879" y="647" width="1838" height="1231"/></clipPath><clipPath id="clip1"><rect x="950" y="646" width="1738" height="1099"/></clipPath><clipPath id="clip2"><rect x="950" y="646" width="1738" height="1099"/></clipPath></defs><g clip-path="url(#clip0)" transform="translate(-879 -647)"><g clip-path="url(#clip1)"><g clip-path="url(#clip2)"><g><g><path d="M0 0 1739.09 0 1739.09 1098 0 1098Z" fill="#FFFFFF" transform="matrix(1.2046 0 0 1 950 647)"/></g><path d="M0 0 1739.09 0 1739.09 1098 0 1098Z" fill="#FFFFFF" transform="matrix(1.2046 0 0 1 950 647)"/><path d="M226.684 998.826 1572.62 998.826 1572.62 255.019 226.684 255.019Z" fill="#FFFFFF" transform="matrix(1.2046 0 0 1 950 647)"/><path d="M675.329 998.826 675.329 255.019" stroke="#262626" stroke-width="2.95149" stroke-linejoin="round" stroke-miterlimit="10" stroke-opacity="0.149" fill="none" transform="matrix(1.2046 0 0 1 950 647)"/><path d="M1123.97 998.826 1123.97 255.019" stroke="#262626" stroke-width="2.95149" stroke-linejoin="round" stroke-miterlimit="10" stroke-opacity="0.149" fill="none" transform="matrix(1.2046 0 0 1 950 647)"/><path d="M1572.62 998.826 226.684 998.826" stroke="#262626" stroke-width="2.95149" stroke-linejoin="round" stroke-miterlimit="10" stroke-opacity="0.149" fill="none" transform="matrix(1.2046 0 0 1 950 647)"/><path d="M1572.62 874.858 226.684 874.858" stroke="#262626" stroke-width="2.95149" stroke-linejoin="round" stroke-miterlimit="10" stroke-opacity="0.149" fill="none" transform="matrix(1.2046 0 0 1 950 647)"/><path d="M1572.62 750.89 226.684 750.89" stroke="#262626" stroke-width="2.95149" stroke-linejoin="round" stroke-miterlimit="10" stroke-opacity="0.149" fill="none" transform="matrix(1.2046 0 0 1 950 647)"/><path d="M1572.62 626.923 226.684 626.923" stroke="#262626" stroke-width="2.95149" stroke-linejoin="round" stroke-miterlimit="10" stroke-opacity="0.149" fill="none" transform="matrix(1.2046 0 0 1 950 647)"/><path d="M1572.62 502.955 226.684 502.955" stroke="#262626" stroke-width="2.95149" stroke-linejoin="round" stroke-miterlimit="10" stroke-opacity="0.149" fill="none" transform="matrix(1.2046 0 0 1 950 647)"/><path d="M1572.62 378.987 226.684 378.987" stroke="#262626" stroke-width="2.95149" stroke-linejoin="round" stroke-miterlimit="10" stroke-opacity="0.149" fill="none" transform="matrix(1.2046 0 0 1 950 647)"/><path d="M1572.62 255.019 226.684 255.019" stroke="#262626" stroke-width="2.95149" stroke-linejoin="round" stroke-miterlimit="10" stroke-opacity="0.149" fill="none" transform="matrix(1.2046 0 0 1 950 647)"/><path d="M226.684 998.826 1572.62 998.826" stroke="#262626" stroke-width="2.95149" stroke-linecap="square" stroke-linejoin="round" stroke-miterlimit="10" fill="none" transform="matrix(1.2046 0 0 1 950 647)"/><path d="M675.329 998.826 675.329 985.366" stroke="#262626" stroke-width="2.95149" stroke-linecap="square" stroke-linejoin="round" stroke-miterlimit="10" fill="none" transform="matrix(1.2046 0 0 1 950 647)"/><path d="M1123.97 998.826 1123.97 985.366" stroke="#262626" stroke-width="2.95149" stroke-linecap="square" stroke-linejoin="round" stroke-miterlimit="10" fill="none" transform="matrix(1.2046 0 0 1 950 647)"/><path d="M226.684 998.826 226.684 255.019" stroke="#262626" stroke-width="2.95149" stroke-linecap="square" stroke-linejoin="round" stroke-miterlimit="10" fill="none" transform="matrix(1.2046 0 0 1 950 647)"/><path d="M226.684 998.826 240.143 998.826" stroke="#262626" stroke-width="2.95149" stroke-linecap="square" stroke-linejoin="round" stroke-miterlimit="10" fill="none" transform="matrix(1.2046 0 0 1 950 647)"/><path d="M226.684 874.858 240.143 874.858" stroke="#262626" stroke-width="2.95149" stroke-linecap="square" stroke-linejoin="round" stroke-miterlimit="10" fill="none" transform="matrix(1.2046 0 0 1 950 647)"/><path d="M226.684 750.89 240.143 750.89" stroke="#262626" stroke-width="2.95149" stroke-linecap="square" stroke-linejoin="round" stroke-miterlimit="10" fill="none" transform="matrix(1.2046 0 0 1 950 647)"/><path d="M226.684 626.923 240.143 626.923" stroke="#262626" stroke-width="2.95149" stroke-linecap="square" stroke-linejoin="round" stroke-miterlimit="10" fill="none" transform="matrix(1.2046 0 0 1 950 647)"/><path d="M226.684 502.955 240.143 502.955" stroke="#262626" stroke-width="2.95149" stroke-linecap="square" stroke-linejoin="round" stroke-miterlimit="10" fill="none" transform="matrix(1.2046 0 0 1 950 647)"/><path d="M226.684 378.987 240.143 378.987" stroke="#262626" stroke-width="2.95149" stroke-linecap="square" stroke-linejoin="round" stroke-miterlimit="10" fill="none" transform="matrix(1.2046 0 0 1 950 647)"/><path d="M226.684 255.019 240.143 255.019" stroke="#262626" stroke-width="2.95149" stroke-linecap="square" stroke-linejoin="round" stroke-miterlimit="10" fill="none" transform="matrix(1.2046 0 0 1 950 647)"/><text fill="#262626" font-family="MS UI Gothic,MS UI Gothic_MSFontService,sans-serif" font-weight="400" font-size="22" transform="matrix(4.26663 0 0 3.54194 1143.42 1672)">0</text><text fill="#262626" font-family="MS UI Gothic,MS UI Gothic_MSFontService,sans-serif" font-weight="400" font-size="22" transform="matrix(4.26663 0 0 3.54194 1096.49 1548)">20</text><text fill="#262626" font-family="MS UI Gothic,MS UI Gothic_MSFontService,sans-serif" font-weight="400" font-size="22" transform="matrix(4.26663 0 0 3.54194 1096.49 1424)">40</text><text fill="#262626" font-family="MS UI Gothic,MS UI Gothic_MSFontService,sans-serif" font-weight="400" font-size="22" transform="matrix(4.26663 0 0 3.54194 1096.49 1300)">60</text><text fill="#262626" font-family="MS UI Gothic,MS UI Gothic_MSFontService,sans-serif" font-weight="400" font-size="22" transform="matrix(4.26663 0 0 3.54194 1096.49 1177)">80</text><text fill="#262626" font-family="MS UI Gothic,MS UI Gothic_MSFontService,sans-serif" font-weight="400" font-size="22" transform="matrix(4.26663 0 0 3.54194 1049.55 1053)">100</text><text fill="#262626" font-family="MS UI Gothic,MS UI Gothic_MSFontService,sans-serif" font-weight="400" font-size="22" transform="matrix(4.26663 0 0 3.54194 1049.55 929)">120</text><path d="M507.087 838.557 619.248 838.557 619.248 734.937 507.087 734.937ZM955.732 878.647 1067.89 878.647 1067.89 725.855 955.732 725.855Z" fill="#0072BD" fill-opacity="0.2" transform="matrix(1.2046 0 0 1 950 647)"/><path d="M563.168 976.059 563.168 838.557" stroke="#242424" stroke-width="5.90334" stroke-linejoin="round" stroke-miterlimit="10" fill="none" transform="matrix(1.2046 0 0 1 950 647)"/><path d="M563.168 734.937 563.168 581.569" stroke="#242424" stroke-width="5.90334" stroke-linejoin="round" stroke-miterlimit="10" fill="none" transform="matrix(1.2046 0 0 1 950 647)"/><path d="M535.127 976.059 591.208 976.059" stroke="#242424" stroke-width="5.90334" stroke-linejoin="round" stroke-miterlimit="10" fill="none" transform="matrix(1.2046 0 0 1 950 647)"/><path d="M535.127 581.569 591.208 581.569" stroke="#242424" stroke-width="5.90334" stroke-linejoin="round" stroke-miterlimit="10" fill="none" transform="matrix(1.2046 0 0 1 950 647)"/><path d="M1011.81 967.282 1011.81 878.647" stroke="#242424" stroke-width="5.90334" stroke-linejoin="round" stroke-miterlimit="10" fill="none" transform="matrix(1.2046 0 0 1 950 647)"/><path d="M1011.81 725.855 1011.81 625.243" stroke="#242424" stroke-width="5.90334" stroke-linejoin="round" stroke-miterlimit="10" fill="none" transform="matrix(1.2046 0 0 1 950 647)"/><path d="M983.773 967.282 1039.85 967.282" stroke="#242424" stroke-width="5.90334" stroke-linejoin="round" stroke-miterlimit="10" fill="none" transform="matrix(1.2046 0 0 1 950 647)"/><path d="M983.773 625.243 1039.85 625.243" stroke="#242424" stroke-width="5.90334" stroke-linejoin="round" stroke-miterlimit="10" fill="none" transform="matrix(1.2046 0 0 1 950 647)"/><path d="M507.087 800.297 619.248 800.297" stroke="#0072BD" stroke-width="5.90334" stroke-linejoin="round" stroke-miterlimit="10" fill="none" transform="matrix(1.2046 0 0 1 950 647)"/><path d="M955.732 799.38 1067.89 799.38" stroke="#0072BD" stroke-width="5.90334" stroke-linejoin="round" stroke-miterlimit="10" fill="none" transform="matrix(1.2046 0 0 1 950 647)"/><path d="M507.087 838.557 619.248 838.557 619.248 838.557 619.248 734.937 619.248 734.937 507.087 734.937 507.087 734.937 507.087 838.557" stroke="#0072BD" stroke-width="5.90334" stroke-miterlimit="10" fill="none" fill-rule="evenodd" transform="matrix(1.2046 0 0 1 950 647)"/><path d="M955.732 878.647 1067.89 878.647 1067.89 878.647 1067.89 725.855 1067.89 725.855 955.732 725.855 955.732 725.855 955.732 878.647" stroke="#0072BD" stroke-width="5.90334" stroke-miterlimit="10" fill="none" fill-rule="evenodd" transform="matrix(1.2046 0 0 1 950 647)"/><path d="M0-14.7582C8.1507-14.7582 14.7582-8.1507 14.7582 0L14.7582 0C14.7582 8.1507 8.1507 14.7582 0 14.7582-8.1507 14.7582-14.7582 8.1507-14.7582 0-14.7582-8.1507-8.1507-14.7582 0-14.7582ZM0-20.6612C-11.4111-20.6612-20.6612-11.4111-20.6612 0-20.6612 11.4111-11.4111 20.6612 0 20.6612 11.4111 20.6612 20.6612 11.4111 20.6612 0L20.6612 0C20.6612-11.4111 11.4111-20.6612 0-20.6612Z" fill="#0072BD" transform="matrix(1.2046 0 0 1 1628.39 982.828)"/><path d="M0-14.7582C8.1507-14.7582 14.7582-8.1507 14.7582 0L14.7582 0C14.7582 8.1507 8.1507 14.7582 0 14.7582-8.1507 14.7582-14.7582 8.1507-14.7582 0-14.7582-8.1507-8.1507-14.7582 0-14.7582ZM0-20.6612C-11.4111-20.6612-20.6612-11.4111-20.6612 0-20.6612 11.4111-11.4111 20.6612 0 20.6612 11.4111 20.6612 20.6612 11.4111 20.6612 0L20.6612 0C20.6612-11.4111 11.4111-20.6612 0-20.6612Z" fill="#0072BD" transform="matrix(1.2046 0 0 1 1628.39 1177.82)"/><path d="M0-14.7582C8.1507-14.7582 14.7582-8.1507 14.7582 0L14.7582 0C14.7582 8.1507 8.1507 14.7582 0 14.7582-8.1507 14.7582-14.7582 8.1507-14.7582 0-14.7582-8.1507-8.1507-14.7582 0-14.7582ZM0-20.6612C-11.4111-20.6612-20.6612-11.4111-20.6612 0-20.6612 11.4111-11.4111 20.6612 0 20.6612 11.4111 20.6612 20.6612 11.4111 20.6612 0L20.6612 0C20.6612-11.4111 11.4111-20.6612 0-20.6612Z" fill="#0072BD" transform="matrix(1.2046 0 0 1 2168.83 1072.97)"/><path d="M0-14.7582C8.1507-14.7582 14.7582-8.1507 14.7582 0L14.7582 0C14.7582 8.1507 8.1507 14.7582 0 14.7582-8.1507 14.7582-14.7582 8.1507-14.7582 0-14.7582-8.1507-8.1507-14.7582 0-14.7582ZM0-20.6612C-11.4111-20.6612-20.6612-11.4111-20.6612 0-20.6612 11.4111-11.4111 20.6612 0 20.6612 11.4111 20.6612 20.6612 11.4111 20.6612 0L20.6612 0C20.6612-11.4111 11.4111-20.6612 0-20.6612Z" fill="#0072BD" transform="matrix(1.2046 0 0 1 2168.83 1065.38)"/><path d="M731.41 855.091 843.571 855.091 843.571 657.347 731.41 657.347ZM1180.05 835.641 1292.22 835.641 1292.22 700.979 1180.05 700.979Z" fill="#D95319" fill-opacity="0.2" transform="matrix(1.2046 0 0 1 950 647)"/><path d="M787.49 961.896 787.49 855.091" stroke="#242424" stroke-width="5.90334" stroke-linejoin="round" stroke-miterlimit="10" fill="none" transform="matrix(1.2046 0 0 1 950 647)"/><path d="M787.49 657.347 787.49 414.417" stroke="#242424" stroke-width="5.90334" stroke-linejoin="round" stroke-miterlimit="10" fill="none" transform="matrix(1.2046 0 0 1 950 647)"/><path d="M759.45 961.896 815.531 961.896" stroke="#242424" stroke-width="5.90334" stroke-linejoin="round" stroke-miterlimit="10" fill="none" transform="matrix(1.2046 0 0 1 950 647)"/><path d="M759.45 414.417 815.531 414.417" stroke="#242424" stroke-width="5.90334" stroke-linejoin="round" stroke-miterlimit="10" fill="none" transform="matrix(1.2046 0 0 1 950 647)"/><path d="M1236.14 955.208 1236.14 835.641" stroke="#242424" stroke-width="5.90334" stroke-linejoin="round" stroke-miterlimit="10" fill="none" transform="matrix(1.2046 0 0 1 950 647)"/><path d="M1236.14 700.979 1236.14 637.472" stroke="#242424" stroke-width="5.90334" stroke-linejoin="round" stroke-miterlimit="10" fill="none" transform="matrix(1.2046 0 0 1 950 647)"/><path d="M1208.09 955.208 1264.18 955.208" stroke="#242424" stroke-width="5.90334" stroke-linejoin="round" stroke-miterlimit="10" fill="none" transform="matrix(1.2046 0 0 1 950 647)"/><path d="M1208.09 637.472 1264.18 637.472" stroke="#242424" stroke-width="5.90334" stroke-linejoin="round" stroke-miterlimit="10" fill="none" transform="matrix(1.2046 0 0 1 950 647)"/><path d="M731.41 773.099 843.571 773.099" stroke="#D95319" stroke-width="5.90334" stroke-linejoin="round" stroke-miterlimit="10" fill="none" transform="matrix(1.2046 0 0 1 950 647)"/><path d="M1180.05 773.013 1292.22 773.013" stroke="#D95319" stroke-width="5.90334" stroke-linejoin="round" stroke-miterlimit="10" fill="none" transform="matrix(1.2046 0 0 1 950 647)"/><path d="M731.41 855.091 843.571 855.091 843.571 855.091 843.571 657.347 843.571 657.347 731.41 657.347 731.41 657.347 731.41 855.091" stroke="#D95319" stroke-width="5.90334" stroke-miterlimit="10" fill="none" fill-rule="evenodd" transform="matrix(1.2046 0 0 1 950 647)"/><path d="M1180.05 835.641 1292.22 835.641 1292.22 835.641 1292.22 700.979 1292.22 700.979 1180.05 700.979 1180.05 700.979 1180.05 835.641" stroke="#D95319" stroke-width="5.90334" stroke-miterlimit="10" fill="none" fill-rule="evenodd" transform="matrix(1.2046 0 0 1 950 647)"/><text font-family="MS UI Gothic,MS UI Gothic_MSFontService,sans-serif" font-weight="400" font-size="23" transform="matrix(4.26663 0 0 3.54194 1247.89 798)">Quadruped robot</text><path d="M233.993 153.631 233.993 87.2202 56.6915 87.2202 56.6915 153.631Z" fill="#0072BD" fill-opacity="0.2" transform="matrix(1.2046 0 0 1 950 647)"/><path d="M56.6915 153.631 56.6915 87.2202 233.993 87.2202 233.993 153.631Z" stroke="#0072BD" stroke-width="5.90334" stroke-miterlimit="10" fill="none" fill-rule="evenodd" transform="matrix(1.2046 0 0 1 950 647)"/><text font-family="MS UI Gothic,MS UI Gothic_MSFontService,sans-serif" font-weight="400" font-size="23" transform="matrix(4.26663 0 0 3.54194 2225.01 798)">Wheeled robot</text><path d="M1045.15 153.631 1045.15 87.2202 867.846 87.2202 867.846 153.631Z" fill="#D95319" fill-opacity="0.2" transform="matrix(1.2046 0 0 1 950 647)"/><path d="M867.846 153.631 867.846 87.2202 1045.15 87.2202 1045.15 153.631Z" stroke="#D95319" stroke-width="5.90334" stroke-miterlimit="10" fill="none" fill-rule="evenodd" transform="matrix(1.2046 0 0 1 950 647)"/></g></g></g><rect x="1251" y="699" width="702" height="144" fill="#FFFFFF"/><text font-family="MS Gothic,MS Gothic_MSFontService,sans-serif" font-weight="700" font-size="92" transform="matrix(1 0 0 1 1284.35 805)">四足型</text><rect x="2219" y="700" width="468" height="144" fill="#FFFFFF"/><text font-family="MS Gothic,MS Gothic_MSFontService,sans-serif" font-weight="700" font-size="92" transform="matrix(1 0 0 1 2252.37 807)">車輪</text><text font-family="MS Gothic,MS Gothic_MSFontService,sans-serif" font-weight="700" font-size="92" transform="matrix(1 0 0 1 2436.85 807)">型</text><text font-family="MS Gothic,MS Gothic_MSFontService,sans-serif" font-weight="700" font-size="73" transform="matrix(-1.83697e-16 -1 1 -1.83697e-16 977.396 1795)">切り替えまでの操作時間（秒）</text><text font-family="Arial,Arial_MSFontService,sans-serif" font-weight="700" font-size="110" transform="matrix(1 0 0 1 1395.44 1786)">A. </text><text font-family="MS Gothic,MS Gothic_MSFontService,sans-serif" font-weight="700" font-size="110" transform="matrix(1 0 0 1 1535.8 1786)">単独映像</text><text font-family="Arial,Arial_MSFontService,sans-serif" font-weight="700" font-size="110" transform="matrix(1 0 0 1 2116.93 1784)">B. 2</text><text font-family="MS Gothic,MS Gothic_MSFontService,sans-serif" font-weight="700" font-size="110" transform="matrix(1 0 0 1 2318.59 1784)">重映像</text></g></svg>