<svg width="1467" height="715" xmlns="http://www.w3.org/2000/svg" xmlns:xlink="http://www.w3.org/1999/xlink" xml:space="preserve" overflow="hidden"><defs><clipPath id="clip0"><rect x="419" y="813" width="1467" height="715"/></clipPath><clipPath id="clip1"><rect x="419" y="813" width="1467" height="714"/></clipPath><clipPath id="clip2"><rect x="419" y="813" width="1467" height="714"/></clipPath></defs><g clip-path="url(#clip0)" transform="translate(-419 -813)"><rect x="419" y="813" width="1467" height="715" fill="#FFFFFF"/><g><path d="M754.025 1184.04 922.03 1184.04 922.03 1461 754.025 1461ZM1173.04 1295.04 1341.04 1295.04 1341.04 1461 1173.04 1461ZM1593.05 1184.04 1761.06 1184.04 1761.06 1461 1593.05 1461Z" fill="#8FAADC"/></g><g><path d="M754.025 1045 922.03 1045 922.03 1184.04 754.025 1184.04ZM1173.04 1045 1341.04 1045 1341.04 1295.04 1173.04 1295.04ZM1593.05 1045 1761.06 1045 1761.06 1184.04 1593.05 1184.04Z" fill="#F4B183"/></g><g><path d="M0 0 0.000360892 417" stroke="#000000" stroke-width="9.16667" stroke-linejoin="round" stroke-miterlimit="10" fill="none" fill-rule="evenodd" transform="matrix(1 0 0 -1 628.5 1461.5)"/></g><g><path d="M628.5 1461.5 647.5 1461.5M628.5 1377.55 647.5 1377.55M628.5 1294.54 647.5 1294.54M628.5 1211.54 647.5 1211.54M628.5 1128.54 647.5 1128.54M628.5 1044.5 647.5 1044.5" stroke="#000000" stroke-width="9.16667" stroke-linejoin="round" stroke-miterlimit="10" fill="none"/></g><g clip-path="url(#clip1)"><path d="M628.5 1461.5 1886.5 1461.5" stroke="#000000" stroke-width="9.16667" stroke-linejoin="round" stroke-miterlimit="10" fill="none" fill-rule="evenodd"/></g><g clip-path="url(#clip2)"><path d="M628.5 1431.5 628.5 1461.5M1047.53 1431.5 1047.53 1461.5M1467.55 1431.5 1467.55 1461.5M1886.5 1431.5 1886.5 1461.5" stroke="#000000" stroke-width="9.16667" stroke-linejoin="round" stroke-miterlimit="10" fill="none"/></g><g><text font-family="Segoe UI,Segoe UI_MSFontService,sans-serif" font-weight="400" font-size="73" transform="matrix(1 0 0 1 798.379 1353)">67</text></g><g><text font-family="Segoe UI,Segoe UI_MSFontService,sans-serif" font-weight="400" font-size="73" transform="matrix(1 0 0 1 1217.81 1408)">40</text></g><g><text font-family="Segoe UI,Segoe UI_MSFontService,sans-serif" font-weight="400" font-size="73" transform="matrix(1 0 0 1 1637.25 1353)">67</text></g><g><text font-family="Segoe UI,Segoe UI_MSFontService,sans-serif" font-weight="400" font-size="83" transform="matrix(1 0 0 1 793.429 1148)">33 </text></g><g><text font-family="Segoe UI,Segoe UI_MSFontService,sans-serif" font-weight="400" font-size="83" transform="matrix(1 0 0 1 1212.86 1204)">60</text></g><g><text font-family="Segoe UI,Segoe UI_MSFontService,sans-serif" font-weight="400" font-size="83" transform="matrix(1 0 0 1 1632.3 1148)">33 </text></g><g><text font-family="Segoe UI,Segoe UI_MSFontService,sans-serif" font-weight="400" font-size="55" transform="matrix(1 0 0 1 497.17 1479)">0%</text></g><g><text font-family="Segoe UI,Segoe UI_MSFontService,sans-serif" font-weight="400" font-size="55" transform="matrix(1 0 0 1 467.516 1396)">20%</text></g><g><text font-family="Segoe UI,Segoe UI_MSFontService,sans-serif" font-weight="400" font-size="55" transform="matrix(1 0 0 1 467.516 1313)">40%</text></g><g><text font-family="Segoe UI,Segoe UI_MSFontService,sans-serif" font-weight="400" font-size="55" transform="matrix(1 0 0 1 467.516 1229)">60%</text></g><g><text font-family="Segoe UI,Segoe UI_MSFontService,sans-serif" font-weight="400" font-size="55" transform="matrix(1 0 0 1 467.516 1146)">80%</text></g><g><text font-family="Segoe UI,Segoe UI_MSFontService,sans-serif" font-weight="400" font-size="55" transform="matrix(1 0 0 1 437.862 1063)">100%</text></g><g><rect x="547" y="860" width="44" height="44" fill="#F4B183"/></g><g><g><text font-family="Meiryo,Meiryo_MSFontService,sans-serif" font-weight="700" font-size="73" transform="matrix(1 0 0 1 610.74 899)">２つの空間が融合している感覚</text></g></g><g><rect x="547" y="951" width="44" height="44" fill="#8FAADC"/></g><g><g><text font-family="Meiryo,Meiryo_MSFontService,sans-serif" font-weight="700" font-size="73" transform="matrix(1 0 0 1 610.74 989)">２つの遠隔空間に分身している感覚</text></g></g></g></svg>