<svg width="1241" height="774" xmlns="http://www.w3.org/2000/svg" xmlns:xlink="http://www.w3.org/1999/xlink" xml:space="preserve" overflow="hidden"><defs><clipPath id="clip0"><rect x="2633" y="68" width="1241" height="774"/></clipPath></defs><g clip-path="url(#clip0)" transform="translate(-2633 -68)"><rect x="2633" y="69.0001" width="1241" height="773" fill="#FFFFFF"/><g><path d="M2890.09 492.016 3006.1 492.016 3006.1 749 2890.09 749ZM3261.11 374.012 3377.11 374.012 3377.11 749 3261.11 749ZM3631.12 460.015 3747.12 460.015 3747.12 749 3631.12 749Z" fill="#8FAADC"/></g><g><path d="M2948.6 492.516 2948.6 523.5M2948.6 492.516 2948.6 460.5M2938.5 523.5 2958.5 523.5M2938.5 460.5 2958.5 460.5" stroke="#000000" stroke-width="12.6042" stroke-linejoin="round" stroke-miterlimit="10" fill="none"/></g><g><path d="M3318.61 374.512 3318.61 400.5M3318.61 374.512 3318.61 347.5M3308.5 400.5 3328.5 400.5M3308.5 347.5 3328.5 347.5" stroke="#000000" stroke-width="12.6042" stroke-linejoin="round" stroke-miterlimit="10" fill="none"/></g><g><path d="M3688.62 459.515 3688.62 496.5M3688.62 459.515 3688.62 422.5M3678.5 496.5 3699.5 496.5M3678.5 422.5 3699.5 422.5" stroke="#000000" stroke-width="12.6042" stroke-linejoin="round" stroke-miterlimit="10" fill="none"/></g><g><path d="M0 0 0.000360892 643" stroke="#000000" stroke-width="10.3125" stroke-linejoin="round" stroke-miterlimit="10" fill="none" fill-rule="evenodd" transform="matrix(1 0 0 -1 2763 749)"/></g><g><path d="M2763 749 2781 749M2763 669.022 2781 669.022M2763 588.019 2781 588.019M2763 508.017 2781 508.017M2763 428.014 2781 428.014M2763 347.011 2781 347.011M2763 267.009 2781 267.009M2763 187.006 2781 187.006M2763 106 2781 106" stroke="#000000" stroke-width="10.3125" stroke-linejoin="round" stroke-miterlimit="10" fill="none"/></g><g><path d="M2763 749 3874 749" stroke="#000000" stroke-width="10.3125" stroke-linejoin="round" stroke-miterlimit="10" fill="none" fill-rule="evenodd"/></g><g><path d="M2763 723 2763 775M3133.1 723 3133.1 775M3504.11 723 3504.11 775M3874 723 3874 775" stroke="#000000" stroke-width="10.3125" stroke-linejoin="round" stroke-miterlimit="10" fill="none"/></g><g><text font-family="Segoe UI,Segoe UI_MSFontService,sans-serif" font-weight="700" font-size="50" transform="matrix(1 0 0 1 2682.65 766)">0</text></g><g><text font-family="Segoe UI,Segoe UI_MSFontService,sans-serif" font-weight="700" font-size="50" transform="matrix(1 0 0 1 2640 685)">0.5</text></g><g><text font-family="Segoe UI,Segoe UI_MSFontService,sans-serif" font-weight="700" font-size="50" transform="matrix(1 0 0 1 2682.65 605)">1</text></g><g><text font-family="Segoe UI,Segoe UI_MSFontService,sans-serif" font-weight="700" font-size="50" transform="matrix(1 0 0 1 2640 524)">1.5</text></g><g><text font-family="Segoe UI,Segoe UI_MSFontService,sans-serif" font-weight="700" font-size="50" transform="matrix(1 0 0 1 2682.65 444)">2</text></g><g><text font-family="Segoe UI,Segoe UI_MSFontService,sans-serif" font-weight="700" font-size="50" transform="matrix(1 0 0 1 2640 364)">2.5</text></g><g><text font-family="Segoe UI,Segoe UI_MSFontService,sans-serif" font-weight="700" font-size="50" transform="matrix(1 0 0 1 2682.65 283)">3</text></g><g><text font-family="Segoe UI,Segoe UI_MSFontService,sans-serif" font-weight="700" font-size="50" transform="matrix(1 0 0 1 2640 203)">3.5</text></g><g><text font-family="Segoe UI,Segoe UI_MSFontService,sans-serif" font-weight="700" font-size="50" transform="matrix(1 0 0 1 2682.65 123)">4</text></g></g></svg>