<svg width="2668" height="1253" xmlns="http://www.w3.org/2000/svg" xmlns:xlink="http://www.w3.org/1999/xlink" xml:space="preserve" overflow="hidden"><g transform="translate(-1446 -229)"><g><g><g><path d="M182.764 109.438 182.764 109.438C180.986 109.438 179.545 110.879 179.545 112.656L180.25 292.906 157.719 292.906 157.719 183.469 151.281 183.469 151.281 292.906 128.75 292.906 128.75 112.656C128.75 110.879 127.309 109.438 125.531 109.438 123.754 109.438 122.313 110.879 122.313 112.656L122.313 299.344 186.688 299.344 185.97 112.656C185.97 110.884 184.536 109.445 182.764 109.438Z" transform="matrix(1.35599 0 0 1 2885 527)"/><path d="M154.5 61.1563C168.721 61.1563 180.25 49.6277 180.25 35.4063 180.25 21.1849 168.721 9.65625 154.5 9.65625 140.279 9.65625 128.75 21.1849 128.75 35.4063 128.766 49.6209 140.285 61.1402 154.5 61.1563ZM154.5 16.0938C165.166 16.0938 173.813 24.7402 173.813 35.4063 173.813 46.0722 165.166 54.7188 154.5 54.7188 143.834 54.7188 135.188 46.0722 135.188 35.4063 135.198 24.7447 143.839 16.1044 154.5 16.0938Z" transform="matrix(1.35599 0 0 1 2885 527)"/><path d="M215.518 169.77 205.401 98.0464C205.112 95.6239 204.384 93.2742 203.251 91.1132 202.536 89.8102 201.69 88.5829 200.728 87.4502 193.656 79.9161 184.824 74.2546 175.026 70.9734 168.53 68.7168 161.699 67.5741 154.822 67.5938 154.61 67.6839 154.371 67.6839 154.159 67.5938 147.302 67.5706 140.49 68.7081 134.013 70.9574 124.143 74.2656 115.254 79.983 108.15 87.5919 107.238 88.6849 106.435 89.8643 105.752 91.1132 104.619 93.2752 103.891 95.6258 103.602 98.0496L93.4661 169.918C92.5005 180.253 97.4187 184.602 101.716 186.43 102.113 186.601 102.542 186.688 102.974 186.688 104.752 186.688 106.193 185.247 106.193 183.469 106.193 182.179 105.423 181.013 104.236 180.508 102.05 179.577 99.218 177.53 99.8585 170.668L109.972 98.9508C110.157 97.2967 110.639 95.6896 111.395 94.2064 111.847 93.3759 112.374 92.5886 112.968 91.8535 119.333 85.0758 127.284 79.9876 136.105 77.0472 141.802 75.0474 147.796 74.0277 153.834 74.0313 153.94 74.0313 154.046 74.0313 154.156 74.0313 154.271 74.0142 154.387 73.9904 154.5 73.9604 154.615 73.9904 154.73 74.0142 154.848 74.0313L154.867 74.0313C161.022 74.0016 167.136 75.0281 172.943 77.0665 181.689 79.9808 189.578 85.012 195.909 91.7119 196.553 92.4869 197.121 93.3222 197.606 94.2064 198.361 95.6883 198.843 97.2944 199.028 98.9476L209.125 170.52C209.769 177.53 206.95 179.577 204.764 180.498 203.123 181.182 202.347 183.066 203.031 184.707 203.534 185.914 204.718 186.697 206.026 186.688 206.458 186.688 206.887 186.601 207.284 186.43 211.581 184.602 216.503 180.25 215.518 169.77Z" transform="matrix(1.35599 0 0 1 2885 527)"/></g></g></g><path d="M2781 353.294C2781 288.514 2833.51 236 2898.29 236L3989.71 236C4054.49 236 4107 288.514 4107 353.294L4107 718.706C4107 783.486 4054.49 836 3989.71 836L2898.29 836C2833.51 836 2781 783.486 2781 718.706Z" stroke="#000000" stroke-width="13.75" stroke-miterlimit="8" fill="none" fill-rule="evenodd"/><g><g><g><path d="M206.423 123.604 206.423 123.604C204.415 123.604 202.787 125.232 202.787 127.24L203.583 330.823 178.136 330.823 178.136 207.219 170.865 207.219 170.865 330.823 145.417 330.823 145.417 127.24C145.417 125.232 143.789 123.604 141.781 123.604 139.774 123.604 138.146 125.232 138.146 127.24L138.146 338.094 210.854 338.094 210.044 127.24C210.044 125.238 208.425 123.612 206.423 123.604Z" transform="matrix(1.55301 0 0 1 1741 886)"/><path d="M174.5 69.073C190.562 69.073 203.583 56.052 203.583 39.9896 203.583 23.9273 190.562 10.9063 174.5 10.9063 158.438 10.9063 145.417 23.9273 145.417 39.9896 145.435 56.0443 158.445 69.0548 174.5 69.073ZM174.5 18.1771C186.547 18.1771 196.313 27.9429 196.313 39.9896 196.313 52.0363 186.547 61.8021 174.5 61.8021 162.453 61.8021 152.688 52.0363 152.688 39.9896 152.7 27.9479 162.459 18.1891 174.5 18.1771Z" transform="matrix(1.55301 0 0 1 1741 886)"/><path d="M243.417 191.747 231.991 110.739C231.664 108.002 230.841 105.349 229.562 102.908 228.754 101.436 227.799 100.05 226.712 98.7707 218.725 90.2613 208.75 83.8669 197.683 80.161 190.346 77.6122 182.631 76.3216 174.864 76.3438 174.624 76.4456 174.354 76.4456 174.115 76.3438 166.37 76.3176 158.677 77.6024 151.361 80.1428 140.213 83.8793 130.173 90.3369 122.15 98.9307 121.12 100.165 120.213 101.497 119.442 102.908 118.162 105.35 117.339 108.005 117.013 110.742L105.565 191.914C104.475 203.587 110.03 208.499 114.883 210.563 115.332 210.756 115.816 210.855 116.304 210.854 118.312 210.854 119.94 209.227 119.94 207.219 119.94 205.762 119.07 204.445 117.729 203.874 115.261 202.824 112.062 200.512 112.785 192.761L124.208 111.76C124.417 109.892 124.961 108.077 125.815 106.401 126.326 105.464 126.92 104.574 127.592 103.744 134.781 96.0889 143.761 90.342 153.724 87.021 160.158 84.7624 166.928 83.6106 173.748 83.6146 173.868 83.6146 173.988 83.6146 174.111 83.6146 174.242 83.5954 174.372 83.5685 174.5 83.5347 174.63 83.5685 174.76 83.5954 174.893 83.6146L174.915 83.6146C181.866 83.5812 188.772 84.7405 195.331 87.0428 205.209 90.3344 214.119 96.0169 221.27 103.584 221.997 104.459 222.639 105.403 223.186 106.401 224.039 108.075 224.583 109.889 224.793 111.756L236.197 192.594C236.924 200.512 233.739 202.824 231.271 203.863 229.418 204.636 228.541 206.764 229.314 208.618 229.882 209.981 231.219 210.865 232.696 210.854 233.185 210.855 233.668 210.756 234.117 210.563 238.971 208.499 244.529 203.583 243.417 191.747Z" transform="matrix(1.55301 0 0 1 1741 886)"/></g></g></g><text font-family="Meiryo UI,Meiryo UI_MSFontService,sans-serif" font-weight="700" font-size="128" transform="matrix(1 0 0 1 3203.75 802)">アバター</text><path d="M3720.4 745.008C3718.78 745.008 3717.22 745.351 3715.72 746.039 3714.22 746.726 3712.73 747.81 3711.25 749.289 3709.77 750.768 3708.32 752.81 3706.9 755.414 3705.49 758.018 3704.27 760.903 3703.25 764.07 3702.23 767.237 3701.42 770.518 3700.84 773.914 3700.26 777.31 3699.97 780.362 3699.97 783.07 3699.97 789.903 3701.92 793.32 3705.84 793.32 3709.17 793.32 3712.73 791.226 3716.5 787.039 3720.27 782.851 3723.55 777.049 3726.34 769.633 3727.17 765.633 3727.59 761.403 3727.59 756.945 3727.59 752.862 3726.97 749.851 3725.72 747.914 3724.47 745.976 3722.69 745.008 3720.4 745.008ZM3719.22 738.508C3724.17 738.508 3728.12 739.768 3731.06 742.289 3734 744.81 3735.8 748.612 3736.47 753.695L3737.28 753.695 3743.22 739.508 3760.15 739.508 3759.4 743.633C3757.82 745.591 3755.14 749.164 3751.37 754.351 3747.6 759.539 3743.97 764.799 3740.47 770.133 3740.42 771.466 3740.28 773.883 3740.03 777.383 3739.78 780.758 3739.65 783.195 3739.65 784.695 3739.65 788.153 3739.97 790.476 3740.59 791.664 3741.22 792.851 3742.28 793.445 3743.78 793.445 3744.9 793.445 3746.11 792.987 3747.4 792.07 3748.69 791.153 3750.36 789.508 3752.4 787.133L3756.9 791.633C3753.19 795.424 3749.68 798.185 3746.37 799.914 3743.06 801.643 3739.44 802.508 3735.53 802.508 3732.15 802.508 3729.59 801.508 3727.84 799.508 3726.09 797.508 3725.22 794.549 3725.22 790.633 3725.22 789.174 3725.34 787.633 3725.59 786.008L3724.65 785.883C3720.69 790.883 3717.49 794.414 3715.03 796.476 3712.57 798.539 3710.04 800.06 3707.43 801.039 3704.83 802.018 3701.88 802.508 3698.59 802.508 3695.26 802.508 3692.41 801.758 3690.06 800.258 3687.7 798.758 3685.93 796.508 3684.75 793.508 3683.56 790.508 3682.97 786.987 3682.97 782.945 3682.97 774.487 3684.49 766.841 3687.53 760.008 3690.57 753.174 3694.86 747.883 3700.4 744.133 3705.94 740.383 3712.22 738.508 3719.22 738.508Z" fill-rule="evenodd"/><text fill="#000000" fill-opacity="0" font-family="Arial,Arial_MSFontService,sans-serif" font-size="64" x="3682.97" y="794.508">𝜶</text><g><g><g><path d="M178.624 106.958 178.624 106.958C176.886 106.958 175.478 108.367 175.478 110.104L176.167 286.271 154.146 286.271 154.146 179.313 147.854 179.313 147.854 286.271 125.833 286.271 125.833 110.104C125.833 108.367 124.425 106.958 122.688 106.958 120.95 106.958 119.542 108.367 119.542 110.104L119.542 292.563 182.458 292.563 181.757 110.104C181.757 108.372 180.356 106.965 178.624 106.958Z" transform="matrix(1.44371 0 0 1 2768 1153)"/><path d="M151 59.7709C164.899 59.7709 176.167 48.5034 176.167 34.6042 176.167 20.705 164.899 9.43751 151 9.43751 137.101 9.43751 125.833 20.705 125.833 34.6042 125.849 48.4968 137.107 59.7551 151 59.7709ZM151 15.7292C161.424 15.7292 169.875 24.1798 169.875 34.6042 169.875 45.0285 161.424 53.4792 151 53.4792 140.576 53.4792 132.125 45.0285 132.125 34.6042 132.135 24.1841 140.58 15.7396 151 15.7292Z" transform="matrix(1.44371 0 0 1 2768 1153)"/><path d="M210.636 165.924 200.748 95.8253C200.466 93.4577 199.754 91.1613 198.647 89.0492 197.948 87.7757 197.121 86.5762 196.181 85.4692 189.269 78.1057 180.638 72.5725 171.061 69.3657 164.712 67.1601 158.036 66.0434 151.315 66.0625 151.108 66.1506 150.874 66.1506 150.667 66.0625 143.965 66.0399 137.308 67.1516 130.977 69.3499 121.33 72.5832 112.643 78.1712 105.7 85.6076 104.809 86.6759 104.024 87.8286 103.356 89.0492 102.249 91.1622 101.537 93.4596 101.255 95.8284L91.3488 166.069C90.405 176.17 95.2119 180.42 99.4115 182.207 99.8 182.374 100.219 182.459 100.642 182.458 102.379 182.458 103.787 181.05 103.788 179.313 103.788 178.052 103.035 176.913 101.875 176.418 99.7387 175.509 96.9704 173.509 97.5964 166.802L107.481 96.7093C107.661 95.0926 108.132 93.5219 108.871 92.0723 109.313 91.2607 109.828 90.4912 110.409 89.7727 116.63 83.1485 124.401 78.1756 133.022 75.3019 138.589 73.3474 144.448 72.3507 150.349 72.3542 150.453 72.3542 150.557 72.3542 150.663 72.3542 150.777 72.3375 150.889 72.3143 151 72.285 151.112 72.3143 151.225 72.3375 151.34 72.3542L151.359 72.3542C157.374 72.3253 163.35 73.3285 169.026 75.3207 177.573 78.169 185.283 83.0862 191.471 89.6343 192.101 90.3918 192.656 91.2081 193.129 92.0723 193.867 93.5206 194.338 95.0904 194.52 96.7061L204.388 166.657C205.017 173.509 202.261 175.509 200.125 176.409 198.522 177.077 197.764 178.919 198.432 180.523 198.924 181.703 200.08 182.468 201.359 182.458 201.781 182.459 202.2 182.374 202.589 182.207 206.788 180.42 211.598 176.167 210.636 165.924Z" transform="matrix(1.44371 0 0 1 2768 1153)"/></g></g></g><text font-family="Meiryo UI,Meiryo UI_MSFontService,sans-serif" font-weight="700" font-size="128" transform="matrix(1 0 0 1 3153.61 1365)">アバター</text><path d="M3682.02 1281.65C3677.81 1281.65 3674.14 1283.9 3671.02 1288.4 3667.89 1292.9 3665.29 1299.76 3663.2 1308.97L3654.77 1347.03C3654.47 1348.36 3654.33 1349.8 3654.33 1351.34 3654.33 1353.67 3655.28 1355.55 3657.17 1356.97 3659.07 1358.38 3661.45 1359.09 3664.33 1359.09 3667.24 1359.09 3669.9 1358.05 3672.3 1355.97 3674.69 1353.88 3676.56 1351.02 3677.89 1347.37 3679.22 1343.73 3679.89 1339.76 3679.89 1335.47 3679.89 1331.05 3678.92 1327.71 3676.98 1325.43 3675.05 1323.16 3672.06 1321.63 3668.02 1320.84L3669.45 1314.47C3675.54 1313.59 3680.37 1311.05 3683.95 1306.84 3687.54 1302.63 3689.33 1297.36 3689.33 1291.03 3689.33 1287.9 3688.67 1285.56 3687.36 1284 3686.05 1282.43 3684.27 1281.65 3682.02 1281.65ZM3683.27 1275.15C3691.06 1275.15 3697.02 1276.57 3701.14 1279.4 3705.27 1282.24 3707.33 1286.34 3707.33 1291.72 3707.33 1297.72 3705.3 1302.91 3701.23 1307.31 3697.17 1311.71 3691.18 1315.13 3683.27 1317.59L3683.14 1318.47C3688.18 1320.13 3691.97 1322.61 3694.52 1325.9 3697.06 1329.19 3698.33 1333.19 3698.33 1337.9 3698.33 1343.28 3697.07 1348.06 3694.55 1352.25 3692.03 1356.43 3688.34 1359.71 3683.48 1362.06 3678.63 1364.41 3672.95 1365.59 3666.45 1365.59 3663.54 1365.59 3660.69 1365.31 3657.92 1364.75 3655.15 1364.18 3652.93 1363.47 3651.27 1362.59L3644.95 1391.59 3627.2 1391.59 3644.39 1313.34C3646.22 1305.05 3648.69 1298.13 3651.8 1292.59 3654.9 1287.05 3659.03 1282.76 3664.17 1279.72 3669.32 1276.67 3675.68 1275.15 3683.27 1275.15Z" fill-rule="evenodd"/><text fill="#000000" fill-opacity="0" font-family="Arial,Arial_MSFontService,sans-serif" font-size="116.438" x="3627.2" y="1377.04">𝜷</text><path d="M2781 1001.51C2781 933.85 2835.85 879 2903.51 879L3984.49 879C4052.15 879 4107 933.85 4107 1001.51L4107 1340.49C4107 1408.15 4052.15 1463 3984.49 1463L2903.51 1463C2835.85 1463 2781 1408.15 2781 1340.49Z" stroke="#000000" stroke-width="13.75" stroke-miterlimit="8" fill="none" fill-rule="evenodd"/><text font-family="Meiryo UI,Meiryo UI_MSFontService,sans-serif" font-weight="700" font-size="128" transform="matrix(1 0 0 1 1523.54 1216)">操作者</text><path d="M1504 666.844C1504 640.421 1525.42 619 1551.84 619L2365.16 619C2391.58 619 2413 640.421 2413 666.844L2413 1196.16C2413 1222.58 2391.58 1244 2365.16 1244L1551.84 1244C1525.42 1244 1504 1222.58 1504 1196.16Z" stroke="#000000" stroke-width="13.75" stroke-miterlimit="8" fill="none" fill-rule="evenodd"/><text font-family="Meiryo UI,Meiryo UI_MSFontService,sans-serif" font-weight="700" font-size="128" transform="matrix(1 0 0 1 1615.88 776)">ローカル空間</text><rect x="1870" y="792" width="308" height="133" fill="#FFFFFF"/><text font-family="Arial,Arial_MSFontService,sans-serif" font-weight="700" font-size="83" transform="matrix(1 0 0 1 1902.52 889)">HMD</text><path d="M1876 811 2147.47 811" stroke="#000000" stroke-width="13.75" stroke-miterlimit="8" fill="#FFFFFF" fill-rule="evenodd"/><path d="M1878 811 1878 926.34" stroke="#000000" stroke-width="13.75" stroke-miterlimit="8" fill="#FFFFFF" fill-rule="evenodd"/><path d="M2142 811 2142 926.34" stroke="#000000" stroke-width="13.75" stroke-miterlimit="8" fill="#FFFFFF" fill-rule="evenodd"/><path d="M2033 926 2147.45 926" stroke="#000000" stroke-width="13.75" stroke-miterlimit="8" fill="#FFFFFF" fill-rule="evenodd"/><path d="M1876 926 1990.45 926" stroke="#000000" stroke-width="13.75" stroke-miterlimit="8" fill="#FFFFFF" fill-rule="evenodd"/><path d="M2009 902 2035.78 930.958" stroke="#000000" stroke-width="13.75" stroke-miterlimit="8" fill="#FFFFFF" fill-rule="evenodd"/><path d="M0 0 26.4119 25.9843" stroke="#000000" stroke-width="13.75" stroke-miterlimit="8" fill="#FFFFFF" fill-rule="evenodd" transform="matrix(1 0 0 -1 1987 927.984)"/><rect x="3065" y="306" width="746" height="188" fill="#FFFFFF"/><text font-family="Meiryo UI,Meiryo UI_MSFontService,sans-serif" font-weight="700" font-size="128" transform="matrix(1 0 0 1 3098.33 447)">遠隔空間</text><path d="M3691.19 390.635C3689.56 390.635 3688 390.978 3686.5 391.666 3685 392.353 3683.51 393.437 3682.03 394.916 3680.55 396.395 3679.1 398.437 3677.69 401.041 3676.27 403.645 3675.05 406.53 3674.03 409.697 3673.01 412.864 3672.21 416.145 3671.62 419.541 3671.04 422.937 3670.75 425.989 3670.75 428.697 3670.75 435.53 3672.71 438.947 3676.62 438.947 3679.96 438.947 3683.51 436.853 3687.28 432.666 3691.05 428.478 3694.33 422.676 3697.12 415.26 3697.96 411.26 3698.37 407.03 3698.37 402.572 3698.37 398.489 3697.75 395.478 3696.5 393.541 3695.25 391.603 3693.48 390.635 3691.19 390.635ZM3690 384.135C3694.96 384.135 3698.9 385.395 3701.84 387.916 3704.78 390.437 3706.58 394.239 3707.25 399.322L3708.06 399.322 3714 385.135 3730.94 385.135 3730.19 389.26C3728.6 391.218 3725.93 394.791 3722.15 399.978 3718.38 405.166 3714.75 410.426 3711.25 415.76 3711.21 417.093 3711.06 419.51 3710.81 423.01 3710.56 426.385 3710.44 428.822 3710.44 430.322 3710.44 433.78 3710.75 436.103 3711.37 437.291 3712 438.478 3713.06 439.072 3714.56 439.072 3715.69 439.072 3716.89 438.614 3718.19 437.697 3719.48 436.78 3721.14 435.135 3723.19 432.76L3727.69 437.26C3723.98 441.051 3720.47 443.812 3717.15 445.541 3713.84 447.27 3710.23 448.135 3706.31 448.135 3702.94 448.135 3700.37 447.135 3698.62 445.135 3696.87 443.135 3696 440.176 3696 436.26 3696 434.801 3696.12 433.26 3696.37 431.635L3695.44 431.51C3691.48 436.51 3688.27 440.041 3685.81 442.103 3683.35 444.166 3680.82 445.687 3678.22 446.666 3675.61 447.645 3672.66 448.135 3669.37 448.135 3666.04 448.135 3663.2 447.385 3660.84 445.885 3658.49 444.385 3656.72 442.135 3655.53 439.135 3654.34 436.135 3653.75 432.614 3653.75 428.572 3653.75 420.114 3655.27 412.468 3658.31 405.635 3661.35 398.801 3665.64 393.51 3671.19 389.76 3676.73 386.01 3683 384.135 3690 384.135Z" fill-rule="evenodd"/><text fill="#000000" fill-opacity="0" font-family="Arial,Arial_MSFontService,sans-serif" font-size="64" x="3653.75" y="440.135">𝜶</text><rect x="3173" y="906" width="766" height="189" fill="#FFFFFF"/><text font-family="Meiryo UI,Meiryo UI_MSFontService,sans-serif" font-weight="700" font-size="128" transform="matrix(1 0 0 1 3238.1 1048)">遠隔空間</text><path d="M3842.7 964.689C3838.49 964.689 3834.83 966.939 3831.7 971.439 3828.58 975.939 3825.97 982.793 3823.89 992.001L3815.45 1030.06C3815.16 1031.4 3815.02 1032.83 3815.02 1034.38 3815.02 1036.71 3815.96 1038.58 3817.86 1040 3819.75 1041.42 3822.14 1042.13 3825.02 1042.13 3827.93 1042.13 3830.59 1041.08 3832.98 1039 3835.38 1036.92 3837.24 1034.05 3838.58 1030.41 3839.91 1026.76 3840.58 1022.79 3840.58 1018.5 3840.58 1014.08 3839.61 1010.74 3837.67 1008.47 3835.73 1006.2 3832.74 1004.67 3828.7 1003.88L3830.14 997.501C3836.22 996.626 3841.06 994.085 3844.64 989.876 3848.22 985.668 3850.02 980.397 3850.02 974.064 3850.02 970.939 3849.36 968.595 3848.05 967.033 3846.73 965.47 3844.95 964.689 3842.7 964.689ZM3843.95 958.189C3851.74 958.189 3857.7 959.606 3861.83 962.439 3865.95 965.272 3868.02 969.376 3868.02 974.751 3868.02 980.751 3865.98 985.949 3861.92 990.345 3857.86 994.741 3851.87 998.168 3843.95 1000.63L3843.83 1001.5C3848.87 1003.17 3852.66 1005.65 3855.2 1008.94 3857.74 1012.23 3859.02 1016.23 3859.02 1020.94 3859.02 1026.31 3857.75 1031.1 3855.23 1035.28 3852.71 1039.47 3849.03 1042.74 3844.17 1045.1 3839.32 1047.45 3833.64 1048.63 3827.14 1048.63 3824.22 1048.63 3821.38 1048.35 3818.61 1047.78 3815.84 1047.22 3813.62 1046.5 3811.95 1045.63L3805.64 1074.63 3787.89 1074.63 3805.08 996.376C3806.91 988.085 3809.38 981.168 3812.48 975.626 3815.59 970.085 3819.71 965.793 3824.86 962.751 3830 959.71 3836.37 958.189 3843.95 958.189Z" fill-rule="evenodd"/><text fill="#000000" fill-opacity="0" font-family="Arial,Arial_MSFontService,sans-serif" font-size="116.438" x="3787.89" y="1060.07">𝜷</text><g><g><g><path d="M4050.19 1264.75C4046.06 1251 4037.12 1239.31 4024.75 1232.09 4024.75 1231.06 4024.75 1230.03 4024.75 1229 4025.09 1205.62 4005.84 1186.37 3982.12 1186.37 3974.91 1186.37 3968.37 1188.09 3962.53 1191.19 3954.62 1179.84 3941.91 1172.62 3927.12 1172.62 3908.22 1172.62 3892.06 1185 3886.22 1202.19 3880.03 1198.75 3872.81 1196.69 3865.25 1196.69 3841.53 1196.69 3822.28 1215.94 3822.28 1239.66 3822.28 1248.59 3825.03 1256.84 3829.84 1263.72 3807.5 1269.56 3791.34 1289.5 3791.34 1313.56 3791.34 1342.09 3814.37 1365.12 3842.91 1365.12 3847.03 1365.12 3851.16 1364.44 3855.28 1363.75 3871.78 1371.31 3908.22 1393.31 3909.94 1418.41L3908.56 1451.06C3908.56 1452.78 3907.87 1454.5 3906.5 1455.87L3903.41 1458.97C3901.34 1461.37 3902.72 1464.81 3905.81 1464.81L3943.62 1464.81C3946.37 1464.81 3947.75 1462.06 3946.72 1459.66 3946.72 1459.66 3945 1456.22 3943.97 1455.19 3942.94 1453.81 3941.91 1452.44 3941.91 1450.37L3940.53 1408.78C3940.53 1408.44 3940.87 1408.09 3940.87 1408.09 3943.62 1395.72 3960.12 1387.47 3977.66 1378.87 3995.19 1370.28 4015.81 1359.97 4022.34 1342.09 4026.47 1343.47 4030.94 1344.5 4035.75 1344.5 4058.44 1344.5 4077 1325.94 4077 1303.25 4076.66 1285.72 4065.66 1270.59 4050.19 1264.75ZM3926.44 1369.59C3925.41 1361 3923.34 1350.69 3919.22 1340.72 3927.81 1339.69 3935.72 1336.94 3942.59 1332.81 3935.37 1345.19 3929.87 1358.59 3926.44 1369.59ZM3874.53 1354.12C3880.72 1349.31 3885.87 1342.78 3889.66 1335.56 3892.75 1336.94 3895.84 1338.31 3899.28 1339 3908.22 1353.78 3909.94 1370.62 3909.94 1381.28 3898.94 1369.59 3884.84 1360.31 3874.53 1354.12ZM3969.75 1363.41C3959.78 1368.22 3949.47 1373.37 3941.22 1379.56 3945.69 1365.47 3953.59 1344.16 3965.97 1328.69 3974.56 1334.19 3984.87 1337.28 3995.87 1337.28 3999.31 1337.28 4002.41 1336.94 4005.5 1336.25 4001.72 1346.91 3988.31 1354.12 3969.75 1363.41Z"/></g></g></g><g><g><g><path d="M48.125 223.438 61.875 223.438 61.875 237.188 48.125 237.188 48.125 223.438ZM48.125 195.938 61.875 195.938 61.875 209.688 48.125 209.688 48.125 195.938ZM48.125 168.438 61.875 168.438 61.875 182.188 48.125 182.188 48.125 168.438ZM75.625 223.438 89.375 223.438 89.375 237.188 75.625 237.188 75.625 223.438ZM75.625 195.938 89.375 195.938 89.375 209.688 75.625 209.688 75.625 195.938ZM75.625 168.438 89.375 168.438 89.375 182.188 75.625 182.188 75.625 168.438ZM27.5 271.562 61.875 271.562 61.875 250.938 75.625 250.938 75.625 271.562 110 271.562 110 147.812 27.5 147.812 27.5 271.562Z" transform="matrix(1 0 0 1.21212 3753 493)"/><path d="M144.375 223.438 158.125 223.438 158.125 237.188 144.375 237.188 144.375 223.438ZM144.375 195.938 158.125 195.938 158.125 209.688 144.375 209.688 144.375 195.938ZM171.875 223.438 185.625 223.438 185.625 237.188 171.875 237.188 171.875 223.438ZM171.875 195.938 185.625 195.938 185.625 209.688 171.875 209.688 171.875 195.938ZM123.75 271.562 158.125 271.562 158.125 250.938 171.875 250.938 171.875 271.562 206.25 271.562 206.25 175.312 123.75 175.312 123.75 271.562Z" transform="matrix(1 0 0 1.21212 3753 493)"/><path d="M281.875 103.125 268.125 103.125 268.125 89.375 281.875 89.375 281.875 103.125ZM281.875 127.188 268.125 127.188 268.125 113.438 281.875 113.438 281.875 127.188ZM281.875 154.688 268.125 154.688 268.125 140.938 281.875 140.938 281.875 154.688ZM281.875 182.188 268.125 182.188 268.125 168.438 281.875 168.438 281.875 182.188ZM281.875 209.688 268.125 209.688 268.125 195.938 281.875 195.938 281.875 209.688ZM281.875 237.188 268.125 237.188 268.125 223.438 281.875 223.438 281.875 237.188ZM254.375 103.125 240.625 103.125 240.625 89.375 254.375 89.375 254.375 103.125ZM254.375 127.188 240.625 127.188 240.625 113.438 254.375 113.438 254.375 127.188ZM254.375 154.688 240.625 154.688 240.625 140.938 254.375 140.938 254.375 154.688ZM254.375 182.188 240.625 182.188 240.625 168.438 254.375 168.438 254.375 182.188ZM254.375 209.688 240.625 209.688 240.625 195.938 254.375 195.938 254.375 209.688ZM254.375 237.188 240.625 237.188 240.625 223.438 254.375 223.438 254.375 237.188ZM220 65.3125 220 271.562 254.375 271.562 254.375 250.938 268.125 250.938 268.125 271.562 302.5 271.562 302.5 75.625 220 65.3125Z" transform="matrix(1 0 0 1.21212 3753 493)"/><path d="M123.75 106.562 137.5 106.562 137.5 120.312 123.75 120.312 123.75 106.562ZM123.75 79.0625 137.5 79.0625 137.5 92.8125 123.75 92.8125 123.75 79.0625ZM110 92.8125 96.25 92.8125 96.25 79.0625 110 79.0625 110 92.8125ZM110 120.312 96.25 120.312 96.25 106.562 110 106.562 110 120.312ZM123.75 161.562 158.125 161.562 158.125 58.4375 75.625 58.4375 75.625 134.062 123.75 134.062 123.75 161.562Z" transform="matrix(1 0 0 1.21212 3753 493)"/></g></g></g><path d="M7.97154-19.0222 731.019 283.981 715.076 322.026-7.97154 19.0222ZM727.94 237.965 818.159 342.861 680.111 352.099Z" transform="matrix(1 0 0 -1 2155.5 1041.36)"/><path d="M2174.13 1005.34 2796.98 1253.17 2781.73 1291.5 2158.88 1043.66ZM2793.06 1207.22 2885.17 1310.46 2747.31 1322.2Z"/></g></svg>