<svg width="3479" height="1119" xmlns="http://www.w3.org/2000/svg" xmlns:xlink="http://www.w3.org/1999/xlink" xml:space="preserve" overflow="hidden"><g transform="translate(-506 -430)"><g><g><g><path d="M843.168 1152.31 843.168 1152.31C840.044 1152.31 837.511 1154.84 837.511 1157.97L838.75 1474.72 799.156 1474.72 799.156 1282.41 787.844 1282.41 787.844 1474.72 748.25 1474.72 748.25 1157.97C748.25 1154.84 745.718 1152.31 742.594 1152.31 739.47 1152.31 736.938 1154.84 736.938 1157.97L736.938 1486.03 850.062 1486.03 848.801 1157.97C848.801 1154.85 846.282 1152.32 843.168 1152.31Z"/><path d="M793.5 1067.47C818.491 1067.47 838.75 1047.21 838.75 1022.22 838.75 997.228 818.491 976.969 793.5 976.969 768.509 976.969 748.25 997.228 748.25 1022.22 748.278 1047.2 768.521 1067.44 793.5 1067.47ZM793.5 988.281C812.243 988.281 827.438 1003.48 827.438 1022.22 827.438 1040.96 812.243 1056.16 793.5 1056.16 774.757 1056.16 759.563 1040.96 759.563 1022.22 759.581 1003.48 774.765 988.3 793.5 988.281Z"/><path d="M900.726 1258.33 882.948 1132.3C882.44 1128.04 881.159 1123.91 879.17 1120.11 877.912 1117.82 876.427 1115.67 874.735 1113.67 862.308 1100.44 846.789 1090.49 829.57 1084.72 818.154 1080.75 806.15 1078.75 794.066 1078.78 793.693 1078.94 793.273 1078.94 792.901 1078.78 780.851 1078.74 768.881 1080.74 757.498 1084.69 740.154 1090.51 724.533 1100.55 712.05 1113.92 710.448 1115.84 709.036 1117.92 707.836 1120.11 705.846 1123.91 704.565 1128.04 704.058 1132.3L686.246 1258.59C684.549 1276.76 693.192 1284.4 700.743 1287.61 701.442 1287.91 702.195 1288.06 702.955 1288.06 706.079 1288.06 708.611 1285.53 708.612 1282.41 708.612 1280.14 707.258 1278.09 705.172 1277.2 701.332 1275.57 696.354 1271.97 697.48 1259.91L715.252 1133.88C715.577 1130.98 716.424 1128.15 717.752 1125.55 718.547 1124.09 719.472 1122.7 720.518 1121.41 731.702 1109.5 745.674 1100.56 761.175 1095.39 771.186 1091.88 781.719 1090.09 792.329 1090.09 792.516 1090.09 792.703 1090.09 792.895 1090.09 793.099 1090.06 793.301 1090.02 793.5 1089.97 793.701 1090.02 793.905 1090.06 794.111 1090.09L794.145 1090.09C804.961 1090.04 815.705 1091.85 825.91 1095.43 841.278 1100.55 855.142 1109.39 866.268 1121.16 867.4 1122.53 868.398 1123.99 869.249 1125.55 870.576 1128.15 871.423 1130.97 871.749 1133.88L889.492 1259.65C890.623 1271.97 885.669 1275.57 881.828 1277.19 878.944 1278.39 877.581 1281.7 878.783 1284.58 879.667 1286.7 881.747 1288.08 884.045 1288.06 884.805 1288.06 885.558 1287.91 886.257 1287.61 893.808 1284.4 902.456 1276.75 900.726 1258.33Z"/></g></g></g><text font-family="Meiryo UI,Meiryo UI_MSFontService,sans-serif" font-weight="700" font-size="128" transform="matrix(1 0 0 1 933.703 1447)">操作者</text><path d="M522 720.914C522 685.063 551.063 656 586.915 656L1350.09 656C1385.94 656 1415 685.063 1415 720.914L1415 1439.09C1415 1474.94 1385.94 1504 1350.09 1504L586.915 1504C551.063 1504 522 1474.94 522 1439.09Z" stroke="#000000" stroke-width="13.75" stroke-miterlimit="8" fill="none" fill-rule="evenodd"/><text font-family="Meiryo,Meiryo_MSFontService,sans-serif" font-weight="700" font-size="128" transform="matrix(1 0 0 1 583.505 801)">ローカル空間</text><rect x="662" y="903" width="285" height="134" fill="#FFFFFF"/><text font-family="Arial,Arial_MSFontService,sans-serif" font-weight="700" font-size="83" transform="matrix(1 0 0 1 694.912 1000)">HMD</text><path d="M647 919 931.969 919" stroke="#000000" stroke-width="13.75" stroke-miterlimit="8" fill="#FFFFFF" fill-rule="evenodd"/><path d="M650 919 650 1034.34" stroke="#000000" stroke-width="13.75" stroke-miterlimit="8" fill="#FFFFFF" fill-rule="evenodd"/><path d="M928 919 928 1034.34" stroke="#000000" stroke-width="13.75" stroke-miterlimit="8" fill="#FFFFFF" fill-rule="evenodd"/><path d="M812 1034 932.145 1034" stroke="#000000" stroke-width="13.75" stroke-miterlimit="8" fill="#FFFFFF" fill-rule="evenodd"/><path d="M647 1034 767.145 1034" stroke="#000000" stroke-width="13.75" stroke-miterlimit="8" fill="#FFFFFF" fill-rule="evenodd"/><path d="M787 1010 815.113 1038.96" stroke="#000000" stroke-width="13.75" stroke-miterlimit="8" fill="#FFFFFF" fill-rule="evenodd"/><path d="M0 0 27.7259 25.9843" stroke="#000000" stroke-width="13.75" stroke-miterlimit="8" fill="#FFFFFF" fill-rule="evenodd" transform="matrix(1 0 0 -1 765 1035.98)"/><path d="M3088 565.017C3088 518.063 3126.06 480 3173.02 480L3892.98 480C3939.94 480 3978 518.063 3978 565.017L3978 874.983C3978 921.937 3939.94 960 3892.98 960L3173.02 960C3126.06 960 3088 921.937 3088 874.983Z" stroke="#ED7D31" stroke-width="13.75" stroke-miterlimit="8" fill="none" fill-rule="evenodd"/><text font-family="Meiryo,Meiryo_MSFontService,sans-serif" font-weight="700" font-size="110" transform="matrix(1 0 0 1 3180.98 605)">遠隔空間</text><path d="M3695.46 556.513C3694.07 556.513 3692.72 556.809 3691.44 557.4 3690.15 557.991 3688.87 558.922 3687.59 560.193 3686.32 561.464 3685.08 563.218 3683.86 565.456 3682.64 567.694 3681.6 570.174 3680.72 572.895 3679.84 575.617 3679.15 578.437 3678.65 581.355 3678.15 584.273 3677.9 586.896 3677.9 589.223 3677.9 595.096 3679.58 598.032 3682.95 598.032 3685.81 598.032 3688.87 596.233 3692.11 592.634 3695.35 589.035 3698.17 584.049 3700.57 577.676 3701.28 574.238 3701.64 570.604 3701.64 566.772 3701.64 563.263 3701.1 560.676 3700.03 559.011 3698.95 557.346 3697.43 556.513 3695.46 556.513ZM3694.44 550.928C3698.7 550.928 3702.1 552.011 3704.62 554.177 3707.15 556.343 3708.69 559.611 3709.27 563.979L3709.97 563.979 3715.07 551.787 3729.62 551.787 3728.98 555.332C3727.62 557.015 3725.32 560.085 3722.08 564.543 3718.84 569.001 3715.71 573.522 3712.7 578.105 3712.67 579.251 3712.54 581.328 3712.33 584.336 3712.11 587.236 3712.01 589.331 3712.01 590.62 3712.01 593.592 3712.28 595.588 3712.81 596.609 3713.35 597.629 3714.26 598.139 3715.55 598.139 3716.52 598.139 3717.56 597.746 3718.67 596.958 3719.78 596.17 3721.21 594.756 3722.96 592.715L3726.83 596.582C3723.64 599.84 3720.63 602.213 3717.78 603.699 3714.93 605.185 3711.83 605.928 3708.46 605.928 3705.56 605.928 3703.36 605.068 3701.86 603.349 3700.35 601.631 3699.6 599.088 3699.6 595.722 3699.6 594.469 3699.71 593.144 3699.92 591.748L3699.12 591.64C3695.71 595.937 3692.96 598.972 3690.84 600.744 3688.73 602.517 3686.56 603.824 3684.32 604.665 3682.08 605.507 3679.55 605.928 3676.72 605.928 3673.85 605.928 3671.41 605.283 3669.39 603.994 3667.36 602.705 3665.84 600.771 3664.82 598.193 3663.8 595.615 3663.29 592.589 3663.29 589.116 3663.29 581.847 3664.6 575.276 3667.21 569.404 3669.83 563.532 3673.51 558.984 3678.28 555.762 3683.04 552.539 3688.43 550.928 3694.44 550.928Z" fill-rule="evenodd"/><text fill="#000000" fill-opacity="0" font-family="Arial,Arial_MSFontService,sans-serif" font-size="55" x="3663.29" y="599.053">𝜶</text><g><g><g><path d="M3772.19 1301.75C3768.06 1288 3759.13 1276.31 3746.75 1269.09 3746.75 1268.06 3746.75 1267.03 3746.75 1266 3747.09 1242.62 3727.84 1223.38 3704.13 1223.38 3696.91 1223.38 3690.38 1225.09 3684.53 1228.19 3676.63 1216.84 3663.91 1209.62 3649.13 1209.62 3630.22 1209.62 3614.06 1222 3608.22 1239.19 3602.03 1235.75 3594.81 1233.69 3587.25 1233.69 3563.53 1233.69 3544.28 1252.94 3544.28 1276.66 3544.28 1285.59 3547.03 1293.84 3551.84 1300.72 3529.5 1306.56 3513.34 1326.5 3513.34 1350.56 3513.34 1379.09 3536.38 1402.12 3564.91 1402.12 3569.03 1402.12 3573.16 1401.44 3577.28 1400.75 3593.78 1408.31 3630.22 1430.31 3631.94 1455.41L3630.56 1488.06C3630.56 1489.78 3629.88 1491.5 3628.5 1492.88L3625.41 1495.97C3623.34 1498.38 3624.72 1501.81 3627.81 1501.81L3665.63 1501.81C3668.38 1501.81 3669.75 1499.06 3668.72 1496.66 3668.72 1496.66 3667 1493.22 3665.97 1492.19 3664.94 1490.81 3663.91 1489.44 3663.91 1487.38L3662.53 1445.78C3662.53 1445.44 3662.88 1445.09 3662.88 1445.09 3665.63 1432.72 3682.13 1424.47 3699.66 1415.88 3717.19 1407.28 3737.81 1396.97 3744.34 1379.09 3748.47 1380.47 3752.94 1381.5 3757.75 1381.5 3780.44 1381.5 3799 1362.94 3799 1340.25 3798.66 1322.72 3787.66 1307.59 3772.19 1301.75ZM3648.44 1406.59C3647.41 1398 3645.34 1387.69 3641.22 1377.72 3649.81 1376.69 3657.72 1373.94 3664.59 1369.81 3657.38 1382.19 3651.88 1395.59 3648.44 1406.59ZM3596.53 1391.12C3602.72 1386.31 3607.88 1379.78 3611.66 1372.56 3614.75 1373.94 3617.84 1375.31 3621.28 1376 3630.22 1390.78 3631.94 1407.62 3631.94 1418.28 3620.94 1406.59 3606.84 1397.31 3596.53 1391.12ZM3691.75 1400.41C3681.78 1405.22 3671.47 1410.38 3663.22 1416.56 3667.69 1402.47 3675.59 1381.16 3687.97 1365.69 3696.56 1371.19 3706.88 1374.28 3717.88 1374.28 3721.31 1374.28 3724.41 1373.94 3727.5 1373.25 3723.72 1383.91 3710.31 1391.12 3691.75 1400.41Z"/></g></g></g><path d="M1604 906.579C1604 837.223 1660.22 781 1729.58 781L2688.42 781C2757.78 781 2814 837.223 2814 906.579L2814 1364.42C2814 1433.78 2757.78 1490 2688.42 1490L1729.58 1490C1660.22 1490 1604 1433.78 1604 1364.42Z" stroke="#ED7D31" stroke-width="13.75" stroke-miterlimit="8" fill="none" fill-rule="evenodd"/><path d="M3088 1059.75C3088 1027.3 3114.3 1001 3146.75 1001L3912.25 1001C3944.7 1001 3971 1027.3 3971 1059.75L3971 1454.25C3971 1486.7 3944.7 1513 3912.25 1513L3146.75 1513C3114.3 1513 3088 1486.7 3088 1454.25Z" stroke="#70AD47" stroke-width="13.75" stroke-miterlimit="8" fill="none" fill-rule="evenodd"/><text font-family="Meiryo UI,Meiryo UI_MSFontService,sans-serif" font-weight="700" font-size="110" transform="matrix(1 0 0 1 3186.31 1133)">遠隔空間</text><path d="M3710.89 1061.8C3707.27 1061.8 3704.12 1063.74 3701.44 1067.6 3698.75 1071.47 3696.51 1077.36 3694.72 1085.28L3687.47 1117.99C3687.22 1119.13 3687.09 1120.37 3687.09 1121.69 3687.09 1123.7 3687.91 1125.31 3689.54 1126.53 3691.17 1127.74 3693.22 1128.35 3695.69 1128.35 3698.19 1128.35 3700.48 1127.46 3702.54 1125.67 3704.6 1123.88 3706.2 1121.41 3707.34 1118.28 3708.49 1115.15 3709.06 1111.74 3709.06 1108.05 3709.06 1104.25 3708.23 1101.38 3706.56 1099.43 3704.9 1097.48 3702.33 1096.16 3698.86 1095.48L3700.09 1090C3705.32 1089.25 3709.47 1087.07 3712.55 1083.45 3715.63 1079.83 3717.17 1075.3 3717.17 1069.86 3717.17 1067.18 3716.61 1065.16 3715.48 1063.82 3714.35 1062.48 3712.82 1061.8 3710.89 1061.8ZM3711.96 1056.22C3718.66 1056.22 3723.78 1057.44 3727.32 1059.87 3730.87 1062.31 3732.64 1065.83 3732.64 1070.45 3732.64 1075.61 3730.9 1080.07 3727.4 1083.85 3723.91 1087.63 3718.77 1090.58 3711.96 1092.69L3711.86 1093.44C3716.19 1094.87 3719.45 1097 3721.63 1099.83 3723.81 1102.66 3724.91 1106.1 3724.91 1110.14 3724.91 1114.76 3723.82 1118.87 3721.66 1122.47 3719.49 1126.07 3716.32 1128.88 3712.15 1130.9 3707.98 1132.93 3703.1 1133.94 3697.51 1133.94 3695.01 1133.94 3692.56 1133.7 3690.18 1133.21 3687.8 1132.73 3685.9 1132.11 3684.46 1131.36L3679.04 1156.28 3663.78 1156.28 3678.55 1089.04C3680.13 1081.91 3682.25 1075.97 3684.92 1071.2 3687.59 1066.44 3691.13 1062.75 3695.55 1060.14 3699.98 1057.53 3705.45 1056.22 3711.96 1056.22Z" fill-rule="evenodd"/><text fill="#000000" fill-opacity="0" font-family="Arial,Arial_MSFontService,sans-serif" font-size="100.063" x="3663.78" y="1143.77">𝜷</text><g><g><g><path d="M48.125 223.438 61.875 223.438 61.875 237.188 48.125 237.188 48.125 223.438ZM48.125 195.938 61.875 195.938 61.875 209.688 48.125 209.688 48.125 195.938ZM48.125 168.438 61.875 168.438 61.875 182.188 48.125 182.188 48.125 168.438ZM75.625 223.438 89.375 223.438 89.375 237.188 75.625 237.188 75.625 223.438ZM75.625 195.938 89.375 195.938 89.375 209.688 75.625 209.688 75.625 195.938ZM75.625 168.438 89.375 168.438 89.375 182.188 75.625 182.188 75.625 168.438ZM27.5 271.562 61.875 271.562 61.875 250.938 75.625 250.938 75.625 271.562 110 271.562 110 147.812 27.5 147.812 27.5 271.562Z" transform="matrix(1 0 0 1.21212 3143 605)"/><path d="M144.375 223.438 158.125 223.438 158.125 237.188 144.375 237.188 144.375 223.438ZM144.375 195.938 158.125 195.938 158.125 209.688 144.375 209.688 144.375 195.938ZM171.875 223.438 185.625 223.438 185.625 237.188 171.875 237.188 171.875 223.438ZM171.875 195.938 185.625 195.938 185.625 209.688 171.875 209.688 171.875 195.938ZM123.75 271.562 158.125 271.562 158.125 250.938 171.875 250.938 171.875 271.562 206.25 271.562 206.25 175.312 123.75 175.312 123.75 271.562Z" transform="matrix(1 0 0 1.21212 3143 605)"/><path d="M281.875 103.125 268.125 103.125 268.125 89.375 281.875 89.375 281.875 103.125ZM281.875 127.188 268.125 127.188 268.125 113.438 281.875 113.438 281.875 127.188ZM281.875 154.688 268.125 154.688 268.125 140.938 281.875 140.938 281.875 154.688ZM281.875 182.188 268.125 182.188 268.125 168.438 281.875 168.438 281.875 182.188ZM281.875 209.688 268.125 209.688 268.125 195.938 281.875 195.938 281.875 209.688ZM281.875 237.188 268.125 237.188 268.125 223.438 281.875 223.438 281.875 237.188ZM254.375 103.125 240.625 103.125 240.625 89.375 254.375 89.375 254.375 103.125ZM254.375 127.188 240.625 127.188 240.625 113.438 254.375 113.438 254.375 127.188ZM254.375 154.688 240.625 154.688 240.625 140.938 254.375 140.938 254.375 154.688ZM254.375 182.188 240.625 182.188 240.625 168.438 254.375 168.438 254.375 182.188ZM254.375 209.688 240.625 209.688 240.625 195.938 254.375 195.938 254.375 209.688ZM254.375 237.188 240.625 237.188 240.625 223.438 254.375 223.438 254.375 237.188ZM220 65.3125 220 271.562 254.375 271.562 254.375 250.938 268.125 250.938 268.125 271.562 302.5 271.562 302.5 75.625 220 65.3125Z" transform="matrix(1 0 0 1.21212 3143 605)"/><path d="M123.75 106.562 137.5 106.562 137.5 120.312 123.75 120.312 123.75 106.562ZM123.75 79.0625 137.5 79.0625 137.5 92.8125 123.75 92.8125 123.75 79.0625ZM110 92.8125 96.25 92.8125 96.25 79.0625 110 79.0625 110 92.8125ZM110 120.312 96.25 120.312 96.25 106.562 110 106.562 110 120.312ZM123.75 161.562 158.125 161.562 158.125 58.4375 75.625 58.4375 75.625 134.062 123.75 134.062 123.75 161.562Z" transform="matrix(1 0 0 1.21212 3143 605)"/></g></g></g><path d="M1569 819.351C1569 774.422 1605.42 738 1650.35 738L2698.65 738C2743.58 738 2780 774.422 2780 819.351L2780 1365.65C2780 1410.58 2743.58 1447 2698.65 1447L1650.35 1447C1605.42 1447 1569 1410.58 1569 1365.65Z" stroke="#70AD47" stroke-width="13.75" stroke-miterlimit="8" fill="none" fill-rule="evenodd"/><path d="M1522 583.74C1522 502.698 1587.7 437 1668.74 437L2731.26 437C2812.3 437 2878 502.698 2878 583.74L2878 1376.26C2878 1457.3 2812.3 1523 2731.26 1523L1668.74 1523C1587.7 1523 1522 1457.3 1522 1376.26Z" stroke="#000000" stroke-width="13.75" stroke-miterlimit="8" fill="none" fill-rule="evenodd"/><text font-family="Meiryo UI,Meiryo UI_MSFontService,sans-serif" font-weight="700" font-size="147" transform="matrix(1 0 0 1 1803.54 644)">サイバー空間</text><g><g><g><path d="M244.548 98.0582C240.96 86.0999 233.187 75.9353 222.425 69.6572 222.425 68.7603 222.425 67.8635 222.425 66.9666 222.724 46.6374 205.982 29.8958 185.354 29.8958 179.076 29.8958 173.396 31.3906 168.313 34.0812 161.437 24.2156 150.376 17.9375 137.521 17.9375 121.078 17.9375 107.027 28.7 101.945 43.6479 96.5634 40.6583 90.2853 38.8645 83.7082 38.8645 63.0801 38.8645 46.3385 55.6062 46.3385 76.2343 46.3385 84.0072 48.7302 91.1822 52.9156 97.1613 33.4833 102.244 19.4323 119.583 19.4323 140.51 19.4323 165.324 39.4625 185.354 64.276 185.354 67.8635 185.354 71.451 184.756 75.0385 184.158 89.3884 190.735 121.078 209.868 122.573 231.692L121.377 260.093C121.377 261.588 120.779 263.083 119.583 264.279L116.893 266.969C115.099 269.062 116.295 272.052 118.985 272.052L151.871 272.052C154.262 272.052 155.458 269.66 154.561 267.567 154.561 267.567 153.066 264.578 152.17 263.681 151.273 262.485 150.376 261.289 150.376 259.496L149.18 223.322C149.18 223.023 149.479 222.724 149.479 222.724 151.871 211.961 166.221 204.786 181.467 197.312 196.714 189.838 214.652 180.87 220.332 165.324 223.92 166.52 227.806 167.416 231.991 167.416 251.723 167.416 267.866 151.273 267.866 131.542 267.567 116.295 258.001 103.141 244.548 98.0582ZM136.923 189.24C136.026 181.766 134.232 172.798 130.645 164.128 138.119 163.231 144.995 160.839 150.974 157.252 144.696 168.014 139.912 179.674 136.923 189.24ZM91.7801 175.787C97.1613 171.602 101.646 165.922 104.934 159.644 107.625 160.839 110.316 162.035 113.305 162.633 121.078 175.488 122.573 190.137 122.573 199.405 113.006 189.24 100.749 181.169 91.7801 175.787ZM174.591 183.859C165.922 188.045 156.953 192.529 149.778 197.91 153.664 185.653 160.54 167.118 171.303 153.664 178.777 158.448 187.746 161.138 197.312 161.138 200.302 161.138 202.992 160.839 205.683 160.241 202.395 169.509 190.735 175.787 174.591 183.859Z" fill="#000000" fill-opacity="0.3" transform="matrix(1 0 0 1 2348 1137)"/></g></g></g><g><g><g><path d="M225.35 134.937 225.35 134.937C223.158 134.937 221.381 136.714 221.381 138.906L222.25 361.156 194.469 361.156 194.469 226.219 186.531 226.219 186.531 361.156 158.75 361.156 158.75 138.906C158.75 136.714 156.973 134.937 154.781 134.937 152.589 134.937 150.812 136.714 150.812 138.906L150.812 369.094 230.187 369.094 229.302 138.906C229.302 136.721 227.535 134.946 225.35 134.937Z" transform="matrix(1.4252 0 0 1 1914 1048)"/><path d="M190.5 75.4062C208.035 75.4062 222.25 61.1914 222.25 43.6562 222.25 26.1212 208.035 11.9062 190.5 11.9062 172.965 11.9062 158.75 26.1212 158.75 43.6562 158.77 61.183 172.973 75.3864 190.5 75.4062ZM190.5 19.8437C203.651 19.8437 214.312 30.505 214.312 43.6562 214.312 56.8075 203.651 67.4687 190.5 67.4687 177.349 67.4687 166.687 56.8075 166.687 43.6562 166.701 30.5104 177.354 19.8569 190.5 19.8437Z" transform="matrix(1.4252 0 0 1 1914 1048)"/><path d="M265.736 209.328 253.262 120.892C252.905 117.905 252.007 115.008 250.611 112.343 249.728 110.737 248.686 109.224 247.499 107.827 238.779 98.5373 227.89 91.5566 215.809 87.5109 207.799 84.7284 199.376 83.3195 190.897 83.3437 190.636 83.4548 190.34 83.4548 190.079 83.3437 181.625 83.3151 173.226 84.7177 165.239 87.4911 153.069 91.5701 142.109 98.6198 133.35 108.002 132.226 109.349 131.235 110.803 130.393 112.343 128.997 115.009 128.098 117.908 127.742 120.896L115.245 209.51C114.054 222.254 120.118 227.616 125.416 229.87 125.907 230.08 126.435 230.188 126.968 230.187 129.16 230.187 130.937 228.411 130.937 226.219 130.937 224.628 129.988 223.191 128.524 222.567 125.829 221.42 122.337 218.896 123.126 210.435L135.596 122.007C135.824 119.968 136.419 117.986 137.35 116.157 137.908 115.133 138.558 114.163 139.291 113.256 147.139 104.899 156.943 98.6254 167.819 94.9999 174.843 92.5342 182.234 91.2768 189.678 91.2812 189.809 91.2812 189.94 91.2812 190.075 91.2812 190.218 91.2602 190.36 91.2308 190.5 91.1939 190.641 91.2308 190.784 91.2602 190.929 91.2812L190.952 91.2812C198.541 91.2447 206.08 92.5103 213.241 95.0238 224.024 98.6171 233.751 104.821 241.558 113.082 242.352 114.037 243.053 115.067 243.649 116.157 244.581 117.985 245.175 119.965 245.404 122.003L257.854 210.252C258.647 218.896 255.171 221.42 252.476 222.556 250.453 223.399 249.496 225.723 250.34 227.746 250.96 229.234 252.419 230.199 254.032 230.187 254.565 230.188 255.093 230.08 255.583 229.87 260.882 227.616 266.95 222.25 265.736 209.328Z" transform="matrix(1.4252 0 0 1 1914 1048)"/></g></g></g><text font-family="MS Gothic,MS Gothic_MSFontService,sans-serif" font-weight="700" font-size="128" transform="matrix(1 0 0 1 2112.41 1046)">アバター</text><g><g><g><path d="M48.125 223.438 61.875 223.438 61.875 237.188 48.125 237.188 48.125 223.438ZM48.125 195.938 61.875 195.938 61.875 209.688 48.125 209.688 48.125 195.938ZM48.125 168.438 61.875 168.438 61.875 182.188 48.125 182.188 48.125 168.438ZM75.625 223.438 89.375 223.438 89.375 237.188 75.625 237.188 75.625 223.438ZM75.625 195.938 89.375 195.938 89.375 209.688 75.625 209.688 75.625 195.938ZM75.625 168.438 89.375 168.438 89.375 182.188 75.625 182.188 75.625 168.438ZM27.5 271.562 61.875 271.562 61.875 250.938 75.625 250.938 75.625 271.562 110 271.562 110 147.812 27.5 147.812 27.5 271.562Z" fill="#000000" fill-opacity="0.3" transform="matrix(1 0 0 1.21212 1704 1067)"/><path d="M144.375 223.438 158.125 223.438 158.125 237.188 144.375 237.188 144.375 223.438ZM144.375 195.938 158.125 195.938 158.125 209.688 144.375 209.688 144.375 195.938ZM171.875 223.438 185.625 223.438 185.625 237.188 171.875 237.188 171.875 223.438ZM171.875 195.938 185.625 195.938 185.625 209.688 171.875 209.688 171.875 195.938ZM123.75 271.562 158.125 271.562 158.125 250.938 171.875 250.938 171.875 271.562 206.25 271.562 206.25 175.312 123.75 175.312 123.75 271.562Z" fill="#000000" fill-opacity="0.3" transform="matrix(1 0 0 1.21212 1704 1067)"/><path d="M281.875 103.125 268.125 103.125 268.125 89.375 281.875 89.375 281.875 103.125ZM281.875 127.188 268.125 127.188 268.125 113.438 281.875 113.438 281.875 127.188ZM281.875 154.688 268.125 154.688 268.125 140.938 281.875 140.938 281.875 154.688ZM281.875 182.188 268.125 182.188 268.125 168.438 281.875 168.438 281.875 182.188ZM281.875 209.688 268.125 209.688 268.125 195.938 281.875 195.938 281.875 209.688ZM281.875 237.188 268.125 237.188 268.125 223.438 281.875 223.438 281.875 237.188ZM254.375 103.125 240.625 103.125 240.625 89.375 254.375 89.375 254.375 103.125ZM254.375 127.188 240.625 127.188 240.625 113.438 254.375 113.438 254.375 127.188ZM254.375 154.688 240.625 154.688 240.625 140.938 254.375 140.938 254.375 154.688ZM254.375 182.188 240.625 182.188 240.625 168.438 254.375 168.438 254.375 182.188ZM254.375 209.688 240.625 209.688 240.625 195.938 254.375 195.938 254.375 209.688ZM254.375 237.188 240.625 237.188 240.625 223.438 254.375 223.438 254.375 237.188ZM220 65.3125 220 271.562 254.375 271.562 254.375 250.938 268.125 250.938 268.125 271.562 302.5 271.562 302.5 75.625 220 65.3125Z" fill="#000000" fill-opacity="0.3" transform="matrix(1 0 0 1.21212 1704 1067)"/><path d="M123.75 106.562 137.5 106.562 137.5 120.312 123.75 120.312 123.75 106.562ZM123.75 79.0625 137.5 79.0625 137.5 92.8125 123.75 92.8125 123.75 79.0625ZM110 92.8125 96.25 92.8125 96.25 79.0625 110 79.0625 110 92.8125ZM110 120.312 96.25 120.312 96.25 106.562 110 106.562 110 120.312ZM123.75 161.562 158.125 161.562 158.125 58.4375 75.625 58.4375 75.625 134.062 123.75 134.062 123.75 161.562Z" fill="#000000" fill-opacity="0.3" transform="matrix(1 0 0 1.21212 1704 1067)"/></g></g></g><path d="M910.549 1092.81 937.086 1072.09 965.525 1052.03 995.061 1033.2 1025.62 1015.59 1057.14 999.205 1089.53 984.039 1122.75 970.09 1156.71 957.356 1191.36 945.834 1226.62 935.526 1262.43 926.429 1298.72 918.545 1335.43 911.875 1372.5 906.421 1409.86 902.185 1447.44 899.17 1485.18 897.379 1523.02 896.815 1560.88 897.484 1598.72 899.39 1636.45 902.538 1674.02 906.934 1711.35 912.584 1748.4 919.496 1785.08 927.676 1821.34 937.132 1857.11 947.873 1892.31 959.907 1926.89 973.244 1960.78 987.894 1995 1004.39 2043.09 1034.43 2004.25 1096.63 1957.85 1067.65 1961.35 1069.58 1929.61 1054.28 1930.99 1054.91 1898.47 1040.85 1899.82 1041.4 1866.59 1028.58 1867.92 1029.07 1834.04 1017.49 1835.35 1017.91 1800.89 1007.56 1802.18 1007.92 1767.21 998.801 1768.48 999.109 1733.06 991.211 1734.32 991.468 1698.52 984.789 1699.76 984.998 1663.65 979.534 1664.88 979.698 1628.53 975.445 1629.74 975.566 1593.22 972.519 1594.42 972.6 1557.79 970.755 1558.99 970.795 1522.32 970.148 1523.51 970.149 1486.87 970.695 1488.06 970.658 1451.51 972.392 1452.71 972.316 1416.32 975.235 1417.52 975.119 1381.37 979.219 1382.58 979.062 1346.72 984.338 1347.94 984.138 1312.45 990.586 1313.67 990.34 1278.62 997.955 1279.86 997.662 1245.31 1006.44 1246.57 1006.1 1212.58 1016.03 1213.86 1015.63 1180.51 1026.72 1181.81 1026.26 1149.16 1038.51 1150.49 1037.98 1118.61 1051.37 1119.96 1050.77 1088.92 1065.3 1090.29 1064.62 1060.15 1080.29 1061.54 1079.53 1032.38 1096.33 1033.79 1095.47 1005.67 1113.4 1007.09 1112.45 980.084 1131.5 981.516 1130.44 955.682 1150.61ZM2034.08 984.204 2115.02 1126.81 1952.37 1106Z"/><path d="M12.4272-16.4607 212.097 134.283 187.243 167.204-12.4272 16.4607ZM220.491 88.9342 281.974 212.88 145.928 187.698Z" fill="#ED7D31" transform="matrix(-1 0 0 1 3088.47 720.5)"/><path d="M3084.27 1277.4 2876.79 1231.79 2885.65 1191.5 3093.13 1237.11ZM2888.08 1276.5 2780.5 1189.5 2914.65 1155.64Z" fill="#70AD47"/></g></svg>