<svg width="1640" height="914" xmlns="http://www.w3.org/2000/svg" xmlns:xlink="http://www.w3.org/1999/xlink" xml:space="preserve" overflow="hidden"><defs><clipPath id="clip0"><rect x="44" y="370" width="1640" height="914"/></clipPath><clipPath id="clip1"><rect x="44" y="370" width="1640" height="914"/></clipPath></defs><g clip-path="url(#clip0)" transform="translate(-44 -370)"><rect x="44" y="370" width="1640" height="914" fill="#FFFFFF"/><g clip-path="url(#clip1)"><path d="M174.5 1047.53 1684.5 1047.53M174.5 921.53 1684.5 921.53M174.5 794.526 1684.5 794.526M174.5 667.522 1684.5 667.522M174.5 541.518 1684.5 541.518M174.5 414.5 1684.5 414.5" stroke="#D9D9D9" stroke-width="3.4375" stroke-linejoin="round" stroke-miterlimit="10" fill="none"/></g><g><path d="M259.008 1022.03 593.019 1022.03 593.019 1174 259.008 1174ZM763.025 837.027 1096.04 837.027 1096.04 1174 763.025 1174ZM1266.04 972.032 1599.05 972.032 1599.05 1174 1266.04 1174Z" fill="#4472C4"/></g><g><path d="M425.514 1022.53 425.514 1070.5M425.514 1022.53 425.514 974.5M415.5 1070.5 436.5 1070.5M415.5 974.5 436.5 974.5" stroke="#000000" stroke-width="12.6042" stroke-linejoin="round" stroke-miterlimit="10" fill="none"/></g><g><path d="M929.531 836.528 929.531 877.5M929.531 836.528 929.531 796.5M919.5 877.5 939.5 877.5M919.5 796.5 939.5 796.5" stroke="#000000" stroke-width="12.6042" stroke-linejoin="round" stroke-miterlimit="10" fill="none"/></g><g><path d="M1432.55 971.532 1432.55 1028.5M1432.55 971.532 1432.55 915.5M1422.5 1028.5 1443.5 1028.5M1422.5 915.5 1443.5 915.5" stroke="#000000" stroke-width="12.6042" stroke-linejoin="round" stroke-miterlimit="10" fill="none"/></g><g><path d="M0 0 0.000360892 759" stroke="#000000" stroke-width="10.3125" stroke-linejoin="round" stroke-miterlimit="10" fill="none" fill-rule="evenodd" transform="matrix(1 0 0 -1 174 1174)"/></g><g><path d="M174 1174 192 1174M174 1048.03 192 1048.03M174 921.03 192 921.03M174 794.026 192 794.026M174 668.022 192 668.022M174 541.018 192 541.018M174 415 192 415" stroke="#000000" stroke-width="10.3125" stroke-linejoin="round" stroke-miterlimit="10" fill="none"/></g><g><path d="M174 1174 1684 1174" stroke="#000000" stroke-width="10.3125" stroke-linejoin="round" stroke-miterlimit="10" fill="none" fill-rule="evenodd"/></g><g><path d="M174 1149 174 1174M678.022 1149 678.022 1174M1181.04 1149 1181.04 1174M1684 1149 1684 1174" stroke="#000000" stroke-width="10.3125" stroke-linejoin="round" stroke-miterlimit="10" fill="none"/></g><g><text font-family="Segoe UI,Segoe UI_MSFontService,sans-serif" font-weight="700" font-size="50" transform="matrix(1 0 0 1 93.6725 1191)">1</text></g><g><text font-family="Segoe UI,Segoe UI_MSFontService,sans-serif" font-weight="700" font-size="50" transform="matrix(1 0 0 1 51.0244 1064)">1.5</text></g><g><text font-family="Segoe UI,Segoe UI_MSFontService,sans-serif" font-weight="700" font-size="50" transform="matrix(1 0 0 1 93.6725 937)">2</text></g><g><text font-family="Segoe UI,Segoe UI_MSFontService,sans-serif" font-weight="700" font-size="50" transform="matrix(1 0 0 1 51.0244 811)">2.5</text></g><g><text font-family="Segoe UI,Segoe UI_MSFontService,sans-serif" font-weight="700" font-size="50" transform="matrix(1 0 0 1 93.6725 684)">3</text></g><g><text font-family="Segoe UI,Segoe UI_MSFontService,sans-serif" font-weight="700" font-size="50" transform="matrix(1 0 0 1 51.0244 558)">3.5</text></g><g><text font-family="Segoe UI,Segoe UI_MSFontService,sans-serif" font-weight="700" font-size="50" transform="matrix(1 0 0 1 93.6725 431)">4</text></g></g></svg>